<svg version="1.1" viewBox="0.0 0.0 636.0 469.0" fill="none" stroke="none" stroke-linecap="square" stroke-miterlimit="10" width="636" height="469" xmlns:xlink="http://www.w3.org/1999/xlink" xmlns="http://www.w3.org/2000/svg"><path fill="#ffffff" d="M0 0L636.0 0L636.0 469.0L0 469.0L0 0Z" fill-rule="nonzero"/><path stroke="#cccccc" stroke-width="1.0" stroke-linecap="butt" d="M147.5 63.5L147.5 393.5" fill-rule="nonzero"/><path stroke="#cccccc" stroke-width="1.0" stroke-linecap="butt" d="M253.5 63.5L253.5 393.5" fill-rule="nonzero"/><path stroke="#cccccc" stroke-width="1.0" stroke-linecap="butt" d="M360.5 63.5L360.5 393.5" fill-rule="nonzero"/><path stroke="#cccccc" stroke-width="1.0" stroke-linecap="butt" d="M466.5 63.5L466.5 393.5" fill-rule="nonzero"/><path stroke="#cccccc" stroke-width="1.0" stroke-linecap="butt" d="M573.5 63.5L573.5 393.5" fill-rule="nonzero"/><path stroke="#000000" stroke-width="1.0" stroke-linecap="butt" d="M612.5 393.5L147.5 393.5" fill-rule="nonzero"/><clipPath id="id_0"><path d="M147.27 63.083332L612.55 63.083332L612.55 393.55L147.27 393.55L147.27 63.083332Z" clip-rule="nonzero"/></clipPath><path stroke="#000000" stroke-width="2.0" stroke-linecap="butt" stroke-opacity="0.0" clip-path="url(#id_0)" d="M147.0 115.0L147.0 81.0L611.0 81.0C612.10455 81.0 613.0 81.89543 613.0 83.0L613.0 113.0C613.0 114.10457 612.10455 115.0 611.0 115.0Z" fill-rule="nonzero"/><path fill="#674ea7" clip-path="url(#id_0)" d="M147.0 115.0L147.0 81.0L611.0 81.0C612.10455 81.0 613.0 81.89543 613.0 83.0L613.0 113.0C613.0 114.10457 612.10455 115.0 611.0 115.0Z" fill-rule="nonzero"/><path stroke="#000000" stroke-width="2.0" stroke-linecap="butt" stroke-opacity="0.0" clip-path="url(#id_0)" d="M147.0 167.0L147.0 133.0L340.0 133.0C341.10458 133.0 342.0 133.89543 342.0 135.0L342.0 165.0C342.0 166.10457 341.10458 167.0 340.0 167.0Z" fill-rule="nonzero"/><path fill="#3d85c6" clip-path="url(#id_0)" d="M147.0 167.0L147.0 133.0L340.0 133.0C341.10458 133.0 342.0 133.89543 342.0 135.0L342.0 165.0C342.0 166.10457 341.10458 167.0 340.0 167.0Z" fill-rule="nonzero"/><path stroke="#000000" stroke-width="2.0" stroke-linecap="butt" stroke-opacity="0.0" clip-path="url(#id_0)" d="M147.0 219.0L147.0 185.0L273.0 185.0C274.10458 185.0 275.0 185.89543 275.0 187.0L275.0 217.0C275.0 218.10457 274.10458 219.0 273.0 219.0Z" fill-rule="nonzero"/><path fill="#f1c232" clip-path="url(#id_0)" d="M147.0 219.0L147.0 185.0L273.0 185.0C274.10458 185.0 275.0 185.89543 275.0 187.0L275.0 217.0C275.0 218.10457 274.10458 219.0 273.0 219.0Z" fill-rule="nonzero"/><path stroke="#000000" stroke-width="2.0" stroke-linecap="butt" stroke-opacity="0.0" clip-path="url(#id_0)" d="M147.0 271.0L147.0 237.0L356.0 237.0C357.10458 237.0 358.0 237.89543 358.0 239.0L358.0 269.0C358.0 270.10458 357.10458 271.0 356.0 271.0Z" fill-rule="nonzero"/><path fill="#6aa84f" clip-path="url(#id_0)" d="M147.0 271.0L147.0 237.0L356.0 237.0C357.10458 237.0 358.0 237.89543 358.0 239.0L358.0 269.0C358.0 270.10458 357.10458 271.0 356.0 271.0Z" fill-rule="nonzero"/><path stroke="#000000" stroke-width="2.0" stroke-linecap="butt" stroke-opacity="0.0" clip-path="url(#id_0)" d="M147.0 323.0L147.0 289.0L264.0 289.0C265.10458 289.0 266.0 289.89542 266.0 291.0L266.0 321.0C266.0 322.10458 265.10458 323.0 264.0 323.0Z" fill-rule="nonzero"/><path fill="#fa8cc5" clip-path="url(#id_0)" d="M147.0 323.0L147.0 289.0L264.0 289.0C265.10458 289.0 266.0 289.89542 266.0 291.0L266.0 321.0C266.0 322.10458 265.10458 323.0 264.0 323.0Z" fill-rule="nonzero"/><path stroke="#000000" stroke-width="2.0" stroke-linecap="butt" stroke-opacity="0.0" clip-path="url(#id_0)" d="M147.0 375.0L147.0 341.0L235.0 341.0C236.10457 341.0 237.0 341.89542 237.0 343.0L237.0 373.0C237.0 374.10458 236.10457 375.0 235.0 375.0Z" fill-rule="nonzero"/><path fill="#cc0000" clip-path="url(#id_0)" d="M147.0 375.0L147.0 341.0L235.0 341.0C236.10457 341.0 237.0 341.89542 237.0 343.0L237.0 373.0C237.0 374.10458 236.10457 375.0 235.0 375.0Z" fill-rule="nonzero"/><path stroke="#674ea7" stroke-width="3.0" stroke-linejoin="round" stroke-linecap="round" d="M579.0469 102.5L573.4531 102.5L573.4531 101.71875L576.40625 98.4375Q577.0625 97.6875 577.3125 97.234375Q577.5625 96.765625 577.5625 96.265625Q577.5625 95.59375 577.15625 95.171875Q576.7656 94.734375 576.0781 94.734375Q575.28125 94.734375 574.8281 95.203125Q574.375 95.65625 574.375 96.484375L573.2969 96.484375Q573.2969 95.296875 574.0469 94.578125Q574.8125 93.84375 576.0781 93.84375Q577.28125 93.84375 577.96875 94.46875Q578.65625 95.09375 578.65625 96.140625Q578.65625 97.390625 577.0469 99.140625L574.7656 101.609375L579.0469 101.609375L579.0469 102.5ZM582.03125 97.703125L582.84375 97.703125Q583.625 97.6875 584.0625 97.296875Q584.5 96.90625 584.5 96.234375Q584.5 94.734375 583.0 94.734375Q582.2969 94.734375 581.875 95.140625Q581.46875 95.546875 581.46875 96.203125L580.375 96.203125Q580.375 95.1875 581.1094 94.515625Q581.8594 93.84375 583.0 93.84375Q584.2031 93.84375 584.8906 94.484375Q585.5781 95.125 585.5781 96.265625Q585.5781 96.828125 585.21875 97.34375Q584.8594 97.859375 584.2344 98.125Q584.9375 98.34375 585.3125 98.859375Q585.7031 99.375 585.7031 100.125Q585.7031 101.265625 584.9531 101.953125Q584.2031 102.625 583.0 102.625Q581.8125 102.625 581.0469 101.96875Q580.2969 101.3125 580.2969 100.25L581.3906 100.25Q581.3906 100.921875 581.8281 101.328125Q582.2656 101.734375 583.0156 101.734375Q583.7969 101.734375 584.2031 101.328125Q584.625 100.90625 584.625 100.140625Q584.625 99.40625 584.1719 99.015625Q583.71875 98.609375 582.84375 98.59375L582.03125 98.59375L582.03125 97.703125ZM592.03125 99.640625L593.21875 99.640625L593.21875 100.515625L592.03125 100.515625L592.03125 102.5L590.9531 102.5L590.9531 100.515625L587.0625 100.515625L587.0625 99.875L590.875 93.96875L592.03125 93.96875L592.03125 99.640625ZM588.2969 99.640625L590.9531 99.640625L590.9531 95.453125L590.8125 95.6875L588.2969 99.640625ZM599.6406 96.1875Q599.6406 96.828125 599.2969 97.328125Q598.9531 97.828125 598.3906 98.109375Q599.0469 98.390625 599.4375 98.953125Q599.8281 99.5 599.8281 100.203125Q599.8281 101.296875 599.0781 101.96875Q598.34375 102.625 597.125 102.625Q595.8906 102.625 595.1406 101.96875Q594.40625 101.296875 594.40625 100.203125Q594.40625 99.5 594.78125 98.953125Q595.15625 98.390625 595.8281 98.109375Q595.2656 97.828125 594.9375 97.328125Q594.6094 96.828125 594.6094 96.1875Q594.6094 95.109375 595.2969 94.484375Q595.9844 93.84375 597.125 93.84375Q598.25 93.84375 598.9375 94.484375Q599.6406 95.109375 599.6406 96.1875ZM598.75 100.171875Q598.75 99.453125 598.2969 99.015625Q597.84375 98.5625 597.1094 98.5625Q596.375 98.5625 595.9219 99.015625Q595.4844 99.453125 595.4844 100.1875Q595.4844 100.90625 595.9219 101.328125Q596.3594 101.734375 597.125 101.734375Q597.875 101.734375 598.3125 101.3125Q598.75 100.890625 598.75 100.171875ZM597.125 94.734375Q596.4844 94.734375 596.0781 95.140625Q595.6875 95.53125 595.6875 96.21875Q595.6875 96.859375 596.0781 97.265625Q596.46875 97.671875 597.1094 97.671875Q597.7656 97.671875 598.15625 97.265625Q598.5469 96.859375 598.5469 96.21875Q598.5469 95.5625 598.1406 95.15625Q597.7344 94.734375 597.125 94.734375ZM606.8125 98.859375Q606.8125 100.765625 606.15625 101.703125Q605.5156 102.625 604.125 102.625Q602.7656 102.625 602.1094 101.71875Q601.4531 100.8125 601.4219 99.0L601.4219 97.5625Q601.4219 95.671875 602.0625 94.765625Q602.71875 93.84375 604.1094 93.84375Q605.4844 93.84375 606.1406 94.734375Q606.7969 95.609375 606.8125 97.453125L606.8125 98.859375ZM605.71875 97.375Q605.71875 96.0 605.3281 95.375Q604.9531 94.734375 604.1094 94.734375Q603.28125 94.734375 602.8906 95.375Q602.5156 96.0 602.5156 97.296875L602.5156 99.03125Q602.5156 100.40625 602.90625 101.078125Q603.3125 101.734375 604.125 101.734375Q604.9219 101.734375 605.3125 101.109375Q605.7031 100.484375 605.71875 99.15625L605.71875 97.375Z" fill-rule="nonzero"/><path fill="#ffffff" d="M579.0469 102.5L573.4531 102.5L573.4531 101.71875L576.40625 98.4375Q577.0625 97.6875 577.3125 97.234375Q577.5625 96.765625 577.5625 96.265625Q577.5625 95.59375 577.15625 95.171875Q576.7656 94.734375 576.0781 94.734375Q575.28125 94.734375 574.8281 95.203125Q574.375 95.65625 574.375 96.484375L573.2969 96.484375Q573.2969 95.296875 574.0469 94.578125Q574.8125 93.84375 576.0781 93.84375Q577.28125 93.84375 577.96875 94.46875Q578.65625 95.09375 578.65625 96.140625Q578.65625 97.390625 577.0469 99.140625L574.7656 101.609375L579.0469 101.609375L579.0469 102.5ZM582.03125 97.703125L582.84375 97.703125Q583.625 97.6875 584.0625 97.296875Q584.5 96.90625 584.5 96.234375Q584.5 94.734375 583.0 94.734375Q582.2969 94.734375 581.875 95.140625Q581.46875 95.546875 581.46875 96.203125L580.375 96.203125Q580.375 95.1875 581.1094 94.515625Q581.8594 93.84375 583.0 93.84375Q584.2031 93.84375 584.8906 94.484375Q585.5781 95.125 585.5781 96.265625Q585.5781 96.828125 585.21875 97.34375Q584.8594 97.859375 584.2344 98.125Q584.9375 98.34375 585.3125 98.859375Q585.7031 99.375 585.7031 100.125Q585.7031 101.265625 584.9531 101.953125Q584.2031 102.625 583.0 102.625Q581.8125 102.625 581.0469 101.96875Q580.2969 101.3125 580.2969 100.25L581.3906 100.25Q581.3906 100.921875 581.8281 101.328125Q582.2656 101.734375 583.0156 101.734375Q583.7969 101.734375 584.2031 101.328125Q584.625 100.90625 584.625 100.140625Q584.625 99.40625 584.1719 99.015625Q583.71875 98.609375 582.84375 98.59375L582.03125 98.59375L582.03125 97.703125ZM592.03125 99.640625L593.21875 99.640625L593.21875 100.515625L592.03125 100.515625L592.03125 102.5L590.9531 102.5L590.9531 100.515625L587.0625 100.515625L587.0625 99.875L590.875 93.96875L592.03125 93.96875L592.03125 99.640625ZM588.2969 99.640625L590.9531 99.640625L590.9531 95.453125L590.8125 95.6875L588.2969 99.640625ZM599.6406 96.1875Q599.6406 96.828125 599.2969 97.328125Q598.9531 97.828125 598.3906 98.109375Q599.0469 98.390625 599.4375 98.953125Q599.8281 99.5 599.8281 100.203125Q599.8281 101.296875 599.0781 101.96875Q598.34375 102.625 597.125 102.625Q595.8906 102.625 595.1406 101.96875Q594.40625 101.296875 594.40625 100.203125Q594.40625 99.5 594.78125 98.953125Q595.15625 98.390625 595.8281 98.109375Q595.2656 97.828125 594.9375 97.328125Q594.6094 96.828125 594.6094 96.1875Q594.6094 95.109375 595.2969 94.484375Q595.9844 93.84375 597.125 93.84375Q598.25 93.84375 598.9375 94.484375Q599.6406 95.109375 599.6406 96.1875ZM598.75 100.171875Q598.75 99.453125 598.2969 99.015625Q597.84375 98.5625 597.1094 98.5625Q596.375 98.5625 595.9219 99.015625Q595.4844 99.453125 595.4844 100.1875Q595.4844 100.90625 595.9219 101.328125Q596.3594 101.734375 597.125 101.734375Q597.875 101.734375 598.3125 101.3125Q598.75 100.890625 598.75 100.171875ZM597.125 94.734375Q596.4844 94.734375 596.0781 95.140625Q595.6875 95.53125 595.6875 96.21875Q595.6875 96.859375 596.0781 97.265625Q596.46875 97.671875 597.1094 97.671875Q597.7656 97.671875 598.15625 97.265625Q598.5469 96.859375 598.5469 96.21875Q598.5469 95.5625 598.1406 95.15625Q597.7344 94.734375 597.125 94.734375ZM606.8125 98.859375Q606.8125 100.765625 606.15625 101.703125Q605.5156 102.625 604.125 102.625Q602.7656 102.625 602.1094 101.71875Q601.4531 100.8125 601.4219 99.0L601.4219 97.5625Q601.4219 95.671875 602.0625 94.765625Q602.71875 93.84375 604.1094 93.84375Q605.4844 93.84375 606.1406 94.734375Q606.7969 95.609375 606.8125 97.453125L606.8125 98.859375ZM605.71875 97.375Q605.71875 96.0 605.3281 95.375Q604.9531 94.734375 604.1094 94.734375Q603.28125 94.734375 602.8906 95.375Q602.5156 96.0 602.5156 97.296875L602.5156 99.03125Q602.5156 100.40625 602.90625 101.078125Q603.3125 101.734375 604.125 101.734375Q604.9219 101.734375 605.3125 101.109375Q605.7031 100.484375 605.71875 99.15625L605.71875 97.375Z" fill-rule="nonzero"/><path stroke="#3d85c6" stroke-width="3.0" stroke-linejoin="round" stroke-linecap="round" d="M328.51736 145.96875L328.51736 146.875L328.31424 146.875Q327.0486 146.90625 326.2986 147.64062Q325.5486 148.35938 325.4236 149.67188Q326.1111 148.90625 327.26736 148.90625Q328.37674 148.90625 329.0486 149.6875Q329.7205 150.46875 329.7205 151.71875Q329.7205 153.03125 329.00174 153.82812Q328.283 154.625 327.06424 154.625Q325.8455 154.625 325.07986 153.6875Q324.32986 152.73438 324.32986 151.25L324.32986 150.84375Q324.32986 148.48438 325.32986 147.23438Q326.32986 145.98438 328.31424 145.96875L328.51736 145.96875ZM327.0955 149.8125Q326.533 149.8125 326.06424 150.14062Q325.5955 150.46875 325.408 150.98438L325.408 151.375Q325.408 152.4375 325.87674 153.07812Q326.3611 153.71875 327.06424 153.71875Q327.7986 153.71875 328.2205 153.1875Q328.64236 152.64062 328.64236 151.76562Q328.64236 150.89062 328.2205 150.35938Q327.7986 149.8125 327.0955 149.8125ZM336.43924 148.1875Q336.43924 148.82812 336.0955 149.32812Q335.75174 149.82812 335.18924 150.10938Q335.8455 150.39062 336.2361 150.95312Q336.62674 151.5 336.62674 152.20312Q336.62674 153.29688 335.87674 153.96875Q335.14236 154.625 333.9236 154.625Q332.68924 154.625 331.93924 153.96875Q331.20486 153.29688 331.20486 152.20312Q331.20486 151.5 331.57986 150.95312Q331.95486 150.39062 332.62674 150.10938Q332.06424 149.82812 331.7361 149.32812Q331.408 148.82812 331.408 148.1875Q331.408 147.10938 332.0955 146.48438Q332.783 145.84375 333.9236 145.84375Q335.0486 145.84375 335.7361 146.48438Q336.43924 147.10938 336.43924 148.1875ZM335.5486 152.17188Q335.5486 151.45312 335.0955 151.01562Q334.64236 150.5625 333.908 150.5625Q333.1736 150.5625 332.7205 151.01562Q332.283 151.45312 332.283 152.1875Q332.283 152.90625 332.7205 153.32812Q333.158 153.73438 333.9236 153.73438Q334.6736 153.73438 335.1111 153.3125Q335.5486 152.89062 335.5486 152.17188ZM333.9236 146.73438Q333.283 146.73438 332.87674 147.14062Q332.4861 147.53125 332.4861 148.21875Q332.4861 148.85938 332.87674 149.26562Q333.26736 149.67188 333.908 149.67188Q334.56424 149.67188 334.95486 149.26562Q335.3455 148.85938 335.3455 148.21875Q335.3455 147.5625 334.93924 147.15625Q334.533 146.73438 333.9236 146.73438Z" fill-rule="nonzero"/><path fill="#ffffff" d="M328.51736 145.96875L328.51736 146.875L328.31424 146.875Q327.0486 146.90625 326.2986 147.64062Q325.5486 148.35938 325.4236 149.67188Q326.1111 148.90625 327.26736 148.90625Q328.37674 148.90625 329.0486 149.6875Q329.7205 150.46875 329.7205 151.71875Q329.7205 153.03125 329.00174 153.82812Q328.283 154.625 327.06424 154.625Q325.8455 154.625 325.07986 153.6875Q324.32986 152.73438 324.32986 151.25L324.32986 150.84375Q324.32986 148.48438 325.32986 147.23438Q326.32986 145.98438 328.31424 145.96875L328.51736 145.96875ZM327.0955 149.8125Q326.533 149.8125 326.06424 150.14062Q325.5955 150.46875 325.408 150.98438L325.408 151.375Q325.408 152.4375 325.87674 153.07812Q326.3611 153.71875 327.06424 153.71875Q327.7986 153.71875 328.2205 153.1875Q328.64236 152.64062 328.64236 151.76562Q328.64236 150.89062 328.2205 150.35938Q327.7986 149.8125 327.0955 149.8125ZM336.43924 148.1875Q336.43924 148.82812 336.0955 149.32812Q335.75174 149.82812 335.18924 150.10938Q335.8455 150.39062 336.2361 150.95312Q336.62674 151.5 336.62674 152.20312Q336.62674 153.29688 335.87674 153.96875Q335.14236 154.625 333.9236 154.625Q332.68924 154.625 331.93924 153.96875Q331.20486 153.29688 331.20486 152.20312Q331.20486 151.5 331.57986 150.95312Q331.95486 150.39062 332.62674 150.10938Q332.06424 149.82812 331.7361 149.32812Q331.408 148.82812 331.408 148.1875Q331.408 147.10938 332.0955 146.48438Q332.783 145.84375 333.9236 145.84375Q335.0486 145.84375 335.7361 146.48438Q336.43924 147.10938 336.43924 148.1875ZM335.5486 152.17188Q335.5486 151.45312 335.0955 151.01562Q334.64236 150.5625 333.908 150.5625Q333.1736 150.5625 332.7205 151.01562Q332.283 151.45312 332.283 152.1875Q332.283 152.90625 332.7205 153.32812Q333.158 153.73438 333.9236 153.73438Q334.6736 153.73438 335.1111 153.3125Q335.5486 152.89062 335.5486 152.17188ZM333.9236 146.73438Q333.283 146.73438 332.87674 147.14062Q332.4861 147.53125 332.4861 148.21875Q332.4861 148.85938 332.87674 149.26562Q333.26736 149.67188 333.908 149.67188Q334.56424 149.67188 334.95486 149.26562Q335.3455 148.85938 335.3455 148.21875Q335.3455 147.5625 334.93924 147.15625Q334.533 146.73438 333.9236 146.73438Z" fill-rule="nonzero"/><path stroke="#f1c232" stroke-width="3.0" stroke-linejoin="round" stroke-linecap="round" d="M260.9195 206.5L259.84137 206.5L259.84137 199.28125L257.65387 200.07812L257.65387 199.09375L260.76324 197.92188L260.9195 197.92188L260.9195 206.5ZM268.62262 197.96875L268.62262 198.875L268.4195 198.875Q267.15387 198.90625 266.40387 199.64062Q265.65387 200.35938 265.52887 201.67188Q266.21637 200.90625 267.37262 200.90625Q268.482 200.90625 269.15387 201.6875Q269.82574 202.46875 269.82574 203.71875Q269.82574 205.03125 269.107 205.82812Q268.38824 206.625 267.1695 206.625Q265.95074 206.625 265.18512 205.6875Q264.43512 204.73438 264.43512 203.25L264.43512 202.84375Q264.43512 200.48438 265.43512 199.23438Q266.43512 197.98438 268.4195 197.96875L268.62262 197.96875ZM267.20074 201.8125Q266.63824 201.8125 266.1695 202.14062Q265.70074 202.46875 265.51324 202.98438L265.51324 203.375Q265.51324 204.4375 265.982 205.07812Q266.46637 205.71875 267.1695 205.71875Q267.90387 205.71875 268.32574 205.1875Q268.74762 204.64062 268.74762 203.76562Q268.74762 202.89062 268.32574 202.35938Q267.90387 201.8125 267.20074 201.8125Z" fill-rule="nonzero"/><path fill="#000000" d="M260.9195 206.5L259.84137 206.5L259.84137 199.28125L257.65387 200.07812L257.65387 199.09375L260.76324 197.92188L260.9195 197.92188L260.9195 206.5ZM268.62262 197.96875L268.62262 198.875L268.4195 198.875Q267.15387 198.90625 266.40387 199.64062Q265.65387 200.35938 265.52887 201.67188Q266.21637 200.90625 267.37262 200.90625Q268.482 200.90625 269.15387 201.6875Q269.82574 202.46875 269.82574 203.71875Q269.82574 205.03125 269.107 205.82812Q268.38824 206.625 267.1695 206.625Q265.95074 206.625 265.18512 205.6875Q264.43512 204.73438 264.43512 203.25L264.43512 202.84375Q264.43512 200.48438 265.43512 199.23438Q266.43512 197.98438 268.4195 197.96875L268.62262 197.96875ZM267.20074 201.8125Q266.63824 201.8125 266.1695 202.14062Q265.70074 202.46875 265.51324 202.98438L265.51324 203.375Q265.51324 204.4375 265.982 205.07812Q266.46637 205.71875 267.1695 205.71875Q267.90387 205.71875 268.32574 205.1875Q268.74762 204.64062 268.74762 203.76562Q268.74762 202.89062 268.32574 202.35938Q267.90387 201.8125 267.20074 201.8125Z" fill-rule="nonzero"/><path stroke="#6aa84f" stroke-width="3.0" stroke-linejoin="round" stroke-linecap="round" d="M344.35086 254.75Q344.02274 255.15625 343.53836 255.40625Q343.0696 255.64062 342.5071 255.64062Q341.77274 255.64062 341.22586 255.28125Q340.679 254.92188 340.3821 254.26562Q340.08524 253.59375 340.08524 252.79688Q340.08524 251.95312 340.39774 251.26562Q340.72586 250.57812 341.3196 250.21875Q341.929 249.84375 342.72586 249.84375Q343.9915 249.84375 344.71024 250.79688Q345.4446 251.75 345.4446 253.375L345.4446 253.6875Q345.4446 256.1875 344.46024 257.32812Q343.47586 258.46875 341.4915 258.5L341.27274 258.5L341.27274 257.59375L341.5071 257.59375Q342.85086 257.5625 343.5696 256.89062Q344.28836 256.21875 344.35086 254.75ZM342.679 254.75Q343.22586 254.75 343.679 254.42188Q344.14774 254.07812 344.3665 253.59375L344.3665 253.15625Q344.3665 252.09375 343.89774 251.42188Q343.429 250.75 342.72586 250.75Q342.0071 250.75 341.5696 251.29688Q341.14774 251.84375 341.14774 252.75Q341.14774 253.625 341.554 254.1875Q341.97586 254.75 342.679 254.75ZM351.46024 249.96875L351.46024 250.875L351.2571 250.875Q349.9915 250.90625 349.2415 251.64062Q348.4915 252.35938 348.3665 253.67188Q349.054 252.90625 350.21024 252.90625Q351.3196 252.90625 351.9915 253.6875Q352.66336 254.46875 352.66336 255.71875Q352.66336 257.03125 351.9446 257.82812Q351.22586 258.625 350.0071 258.625Q348.78836 258.625 348.02274 257.6875Q347.27274 256.73438 347.27274 255.25L347.27274 254.84375Q347.27274 252.48438 348.27274 251.23438Q349.27274 249.98438 351.2571 249.96875L351.46024 249.96875ZM350.03836 253.8125Q349.47586 253.8125 349.0071 254.14062Q348.53836 254.46875 348.35086 254.98438L348.35086 255.375Q348.35086 256.4375 348.8196 257.07812Q349.304 257.71875 350.0071 257.71875Q350.7415 257.71875 351.16336 257.1875Q351.58524 256.64062 351.58524 255.76562Q351.58524 254.89062 351.16336 254.35938Q350.7415 253.8125 350.03836 253.8125Z" fill-rule="nonzero"/><path fill="#000000" d="M344.35086 254.75Q344.02274 255.15625 343.53836 255.40625Q343.0696 255.64062 342.5071 255.64062Q341.77274 255.64062 341.22586 255.28125Q340.679 254.92188 340.3821 254.26562Q340.08524 253.59375 340.08524 252.79688Q340.08524 251.95312 340.39774 251.26562Q340.72586 250.57812 341.3196 250.21875Q341.929 249.84375 342.72586 249.84375Q343.9915 249.84375 344.71024 250.79688Q345.4446 251.75 345.4446 253.375L345.4446 253.6875Q345.4446 256.1875 344.46024 257.32812Q343.47586 258.46875 341.4915 258.5L341.27274 258.5L341.27274 257.59375L341.5071 257.59375Q342.85086 257.5625 343.5696 256.89062Q344.28836 256.21875 344.35086 254.75ZM342.679 254.75Q343.22586 254.75 343.679 254.42188Q344.14774 254.07812 344.3665 253.59375L344.3665 253.15625Q344.3665 252.09375 343.89774 251.42188Q343.429 250.75 342.72586 250.75Q342.0071 250.75 341.5696 251.29688Q341.14774 251.84375 341.14774 252.75Q341.14774 253.625 341.554 254.1875Q341.97586 254.75 342.679 254.75ZM351.46024 249.96875L351.46024 250.875L351.2571 250.875Q349.9915 250.90625 349.2415 251.64062Q348.4915 252.35938 348.3665 253.67188Q349.054 252.90625 350.21024 252.90625Q351.3196 252.90625 351.9915 253.6875Q352.66336 254.46875 352.66336 255.71875Q352.66336 257.03125 351.9446 257.82812Q351.22586 258.625 350.0071 258.625Q348.78836 258.625 348.02274 257.6875Q347.27274 256.73438 347.27274 255.25L347.27274 254.84375Q347.27274 252.48438 348.27274 251.23438Q349.27274 249.98438 351.2571 249.96875L351.46024 249.96875ZM350.03836 253.8125Q349.47586 253.8125 349.0071 254.14062Q348.53836 254.46875 348.35086 254.98438L348.35086 255.375Q348.35086 256.4375 348.8196 257.07812Q349.304 257.71875 350.0071 257.71875Q350.7415 257.71875 351.16336 257.1875Q351.58524 256.64062 351.58524 255.76562Q351.58524 254.89062 351.16336 254.35938Q350.7415 253.8125 350.03836 253.8125Z" fill-rule="nonzero"/><path stroke="#fa8cc5" stroke-width="3.0" stroke-linejoin="round" stroke-linecap="round" d="M251.31978 310.5L250.24165 310.5L250.24165 303.28125L248.05415 304.07812L248.05415 303.09375L251.16353 301.92188L251.31978 301.92188L251.31978 310.5ZM256.33542 305.70312L257.14792 305.70312Q257.92917 305.6875 258.36667 305.29688Q258.80417 304.90625 258.80417 304.23438Q258.80417 302.73438 257.30417 302.73438Q256.60104 302.73438 256.17917 303.14062Q255.7729 303.54688 255.7729 304.20312L254.67915 304.20312Q254.67915 303.1875 255.41353 302.51562Q256.16354 301.84375 257.30417 301.84375Q258.5073 301.84375 259.1948 302.48438Q259.8823 303.125 259.8823 304.26562Q259.8823 304.82812 259.52292 305.34375Q259.16354 305.85938 258.53854 306.125Q259.24167 306.34375 259.61667 306.85938Q260.0073 307.375 260.0073 308.125Q260.0073 309.26562 259.2573 309.95312Q258.5073 310.625 257.30417 310.625Q256.11667 310.625 255.35103 309.96875Q254.60103 309.3125 254.60103 308.25L255.69478 308.25Q255.69478 308.92188 256.1323 309.32812Q256.5698 309.73438 257.3198 309.73438Q258.10104 309.73438 258.5073 309.32812Q258.92917 308.90625 258.92917 308.14062Q258.92917 307.40625 258.47604 307.01562Q258.02292 306.60938 257.14792 306.59375L256.33542 306.59375L256.33542 305.70312Z" fill-rule="nonzero"/><path fill="#000000" d="M251.31978 310.5L250.24165 310.5L250.24165 303.28125L248.05415 304.07812L248.05415 303.09375L251.16353 301.92188L251.31978 301.92188L251.31978 310.5ZM256.3354 305.70312L257.1479 305.70312Q257.92914 305.6875 258.36664 305.29688Q258.80414 304.90625 258.80414 304.23438Q258.80414 302.73438 257.30414 302.73438Q256.601 302.73438 256.17914 303.14062Q255.7729 303.54688 255.7729 304.20312L254.67915 304.20312Q254.67915 303.1875 255.41353 302.51562Q256.1635 301.84375 257.30414 301.84375Q258.50726 301.84375 259.19476 302.48438Q259.88226 303.125 259.88226 304.26562Q259.88226 304.82812 259.5229 305.34375Q259.1635 305.85938 258.5385 306.125Q259.24164 306.34375 259.61664 306.85938Q260.00726 307.375 260.00726 308.125Q260.00726 309.26562 259.25726 309.95312Q258.50726 310.625 257.30414 310.625Q256.11664 310.625 255.35103 309.96875Q254.60103 309.3125 254.60103 308.25L255.69478 308.25Q255.69478 308.92188 256.13226 309.32812Q256.56976 309.73438 257.31976 309.73438Q258.101 309.73438 258.50726 309.32812Q258.92914 308.90625 258.92914 308.14062Q258.92914 307.40625 258.476 307.01562Q258.0229 306.60938 257.1479 306.59375L256.3354 306.59375L256.3354 305.70312Z" fill-rule="nonzero"/><path stroke="#cc0000" stroke-width="3.0" stroke-linejoin="round" stroke-linecap="round" d="M231.65315 354.57812L228.1219 362.5L226.98128 362.5L230.4969 354.85938L225.88753 354.85938L225.88753 353.96875L231.65315 353.96875L231.65315 354.57812Z" fill-rule="nonzero"/><path fill="#ffffff" d="M231.65315 354.57812L228.1219 362.5L226.98128 362.5L230.4969 354.85938L225.88753 354.85938L225.88753 353.96875L231.65315 353.96875L231.65315 354.57812Z" fill-rule="nonzero"/><path fill="#000000" d="M357.51938 442.55L357.51938 434.97186L354.69125 434.97186L354.69125 433.95624L361.50375 433.95624L361.50375 434.97186L358.66 434.97186L358.66 442.55L357.51938 442.55ZM362.20688 435.175L362.20688 433.95624L363.26938 433.95624L363.26938 435.175L362.20688 435.175ZM362.20688 442.55L362.20688 436.33124L363.26938 436.33124L363.26938 442.55L362.20688 442.55ZM365.20688 442.55L365.20688 436.33124L366.14438 436.33124L366.14438 437.20624Q366.44125 436.7375 366.92563 436.47186Q367.41 436.1906 368.035 436.1906Q368.7225 436.1906 369.16 436.47186Q369.61313 436.7531 369.785 437.26874Q370.535 436.1906 371.70688 436.1906Q372.64438 436.1906 373.12875 436.70624Q373.62875 437.20624 373.62875 438.28436L373.62875 442.55L372.58188 442.55L372.58188 438.6281Q372.58188 438.0031 372.4725 437.72186Q372.37875 437.4406 372.11313 437.26874Q371.8475 437.09686 371.4725 437.09686Q370.81625 437.09686 370.37875 437.53436Q369.95688 437.97186 369.95688 438.9406L369.95688 442.55L368.89438 442.55L368.89438 438.5031Q368.89438 437.8 368.62875 437.45624Q368.37875 437.09686 367.80063 437.09686Q367.3475 437.09686 366.9725 437.33124Q366.5975 437.5656 366.42563 438.01874Q366.25375 438.47186 366.25375 439.3156L366.25375 442.55L365.20688 442.55ZM379.45688 440.55L380.55063 440.675Q380.30063 441.6281 379.5975 442.15936Q378.89438 442.6906 377.81625 442.6906Q376.45688 442.6906 375.64438 441.84686Q374.8475 441.0031 374.8475 439.4875Q374.8475 437.925 375.66 437.0656Q376.4725 436.1906 377.75375 436.1906Q379.00375 436.1906 379.785 437.03436Q380.58188 437.8781 380.58188 439.425Q380.58188 439.51874 380.58188 439.70624L375.94125 439.70624Q376.00375 440.7375 376.51938 441.28436Q377.035 441.8156 377.81625 441.8156Q378.39438 441.8156 378.80063 441.51874Q379.2225 441.20624 379.45688 440.55ZM376.00375 438.84686L379.4725 438.84686Q379.41 438.05 379.08188 437.65936Q378.56625 437.05 377.76938 437.05Q377.035 437.05 376.535 437.53436Q376.05063 438.01874 376.00375 438.84686ZM387.2225 445.08124Q386.3475 443.97186 385.73813 442.5031Q385.14438 441.01874 385.14438 439.4406Q385.14438 438.05 385.58188 436.76874Q386.11313 435.28436 387.2225 433.8156L387.9725 433.8156Q387.26938 435.03436 387.035 435.55Q386.67563 436.3625 386.4725 437.2375Q386.2225 438.33124 386.2225 439.4406Q386.2225 442.26874 387.9725 445.08124L387.2225 445.08124ZM394.37875 436.33124L394.37875 442.55L393.42563 442.55L393.42563 441.8156Q393.12875 442.28436 392.83188 442.45624Q392.42563 442.6906 391.87875 442.6906Q391.39438 442.6906 391.01938 442.5031Q390.73813 442.3625 390.39438 441.925L390.39438 444.9406L389.3475 444.9406L389.3475 436.33124L390.39438 436.33124L390.39438 438.95624Q390.39438 440.39374 390.535 440.83124Q390.69125 441.2531 391.035 441.5031Q391.37875 441.7375 391.83188 441.7375Q392.30063 441.7375 392.66 441.4875Q393.035 441.22186 393.17563 440.8156Q393.33188 440.40936 393.33188 438.9875L393.33188 436.33124L394.37875 436.33124ZM395.785 440.6906L396.81625 440.53436Q396.91 441.15936 397.30063 441.4875Q397.70688 441.8156 398.44125 441.8156Q399.16 441.8156 399.50375 441.53436Q399.86313 441.2375 399.86313 440.83124Q399.86313 440.47186 399.55063 440.26874Q399.33188 440.1281 398.4725 439.90936Q397.31625 439.6125 396.86313 439.40936Q396.42563 439.1906 396.19125 438.8156Q395.95688 438.4406 395.95688 437.97186Q395.95688 437.5656 396.14438 437.20624Q396.33188 436.84686 396.66 436.6125Q396.91 436.4406 397.33188 436.3156Q397.75375 436.1906 398.25375 436.1906Q398.9725 436.1906 399.51938 436.40936Q400.08188 436.6125 400.3475 436.97186Q400.61313 437.33124 400.70688 437.925L399.67563 438.0656Q399.61313 437.59686 399.26938 437.33124Q398.94125 437.05 398.31625 437.05Q397.5975 437.05 397.285 437.3Q396.9725 437.53436 396.9725 437.8625Q396.9725 438.0656 397.0975 438.22186Q397.23813 438.39374 397.50375 438.5031Q397.66 438.5656 398.44125 438.76874Q399.56625 439.08124 400.00375 439.26874Q400.44125 439.45624 400.69125 439.8156Q400.94125 440.175 400.94125 440.72186Q400.94125 441.2531 400.62875 441.72186Q400.33188 442.175 399.75375 442.4406Q399.17563 442.6906 398.44125 442.6906Q397.2225 442.6906 396.58188 442.1906Q395.95688 441.675 395.785 440.6906ZM402.89438 445.08124L402.14438 445.08124Q403.89438 442.26874 403.89438 439.4406Q403.89438 438.34686 403.64438 437.2531Q403.44125 436.3781 403.08188 435.5656Q402.8475 435.05 402.14438 433.8156L402.89438 433.8156Q403.98813 435.28436 404.51938 436.76874Q404.9725 438.05 404.9725 439.4406Q404.9725 441.01874 404.36313 442.5031Q403.75375 443.97186 402.89438 445.08124Z" fill-rule="nonzero"/><path fill="#000000" d="M65.645004 102.21168L62.316875 93.61793L63.55125 93.61793L65.78563 99.86793Q66.051254 100.61793 66.238754 101.27418Q66.44188 100.57105 66.707504 99.86793L69.020004 93.61793L70.176254 93.61793L66.81688 102.21168L65.645004 102.21168ZM75.12938 101.44605Q74.53563 101.94605 73.988754 102.14918Q73.457504 102.3523 72.832504 102.3523Q71.801254 102.3523 71.25438 101.8523Q70.707504 101.3523 70.707504 100.57105Q70.707504 100.11793 70.91063 99.74293Q71.113754 99.3523 71.457504 99.13355Q71.801254 98.89918 72.22313 98.7898Q72.520004 98.69605 73.16063 98.61793Q74.426254 98.4773 75.03563 98.25855Q75.03563 98.0398 75.03563 97.99293Q75.03563 97.33668 74.738754 97.07105Q74.332504 96.7273 73.53563 96.7273Q72.801254 96.7273 72.44188 96.99293Q72.082504 97.24293 71.91063 97.89918L70.87938 97.75855Q71.020004 97.1023 71.34813 96.69605Q71.676254 96.2898 72.28563 96.07105Q72.895004 95.8523 73.69188 95.8523Q74.488754 95.8523 74.988754 96.0398Q75.488754 96.2273 75.72313 96.50855Q75.957504 96.7898 76.051254 97.2273Q76.09813 97.49293 76.09813 98.19605L76.09813 99.6023Q76.09813 101.07105 76.16063 101.46168Q76.238754 101.8523 76.44188 102.21168L75.332504 102.21168Q75.176254 101.88355 75.12938 101.44605ZM75.03563 99.08668Q74.457504 99.32105 73.31688 99.49293Q72.66063 99.58668 72.395004 99.71168Q72.12938 99.82105 71.97313 100.0398Q71.832504 100.25855 71.832504 100.5398Q71.832504 100.96168 72.145004 101.24293Q72.47313 101.52418 73.082504 101.52418Q73.69188 101.52418 74.16063 101.25855Q74.645004 100.99293 74.863754 100.52418Q75.03563 100.1648 75.03563 99.4773L75.03563 99.08668ZM78.06688 102.21168L78.06688 95.99293L79.00438 95.99293L79.00438 96.86793Q79.69188 95.8523 80.988754 95.8523Q81.551254 95.8523 82.020004 96.05543Q82.50438 96.25855 82.738754 96.58668Q82.97313 96.9148 83.06688 97.3523Q83.113754 97.64918 83.113754 98.38355L83.113754 102.21168L82.06688 102.21168L82.06688 98.43043Q82.06688 97.77418 81.94188 97.46168Q81.81688 97.14918 81.50438 96.96168Q81.19188 96.75855 80.770004 96.75855Q80.09813 96.75855 79.59813 97.19605Q79.113754 97.61793 79.113754 98.80543L79.113754 102.21168L78.06688 102.21168ZM85.06688 94.83668L85.06688 93.61793L86.12938 93.61793L86.12938 94.83668L85.06688 94.83668ZM85.06688 102.21168L85.06688 95.99293L86.12938 95.99293L86.12938 102.21168L85.06688 102.21168ZM88.03563 102.21168L88.03563 93.61793L89.09813 93.61793L89.09813 102.21168L88.03563 102.21168ZM91.03563 102.21168L91.03563 93.61793L92.09813 93.61793L92.09813 102.21168L91.03563 102.21168ZM98.12938 101.44605Q97.53563 101.94605 96.988754 102.14918Q96.457504 102.3523 95.832504 102.3523Q94.801254 102.3523 94.25438 101.8523Q93.707504 101.3523 93.707504 100.57105Q93.707504 100.11793 93.91063 99.74293Q94.113754 99.3523 94.457504 99.13355Q94.801254 98.89918 95.22313 98.7898Q95.520004 98.69605 96.16063 98.61793Q97.426254 98.4773 98.03563 98.25855Q98.03563 98.0398 98.03563 97.99293Q98.03563 97.33668 97.738754 97.07105Q97.332504 96.7273 96.53563 96.7273Q95.801254 96.7273 95.44188 96.99293Q95.082504 97.24293 94.91063 97.89918L93.87938 97.75855Q94.020004 97.1023 94.34813 96.69605Q94.676254 96.2898 95.28563 96.07105Q95.895004 95.8523 96.69188 95.8523Q97.488754 95.8523 97.988754 96.0398Q98.488754 96.2273 98.72313 96.50855Q98.957504 96.7898 99.051254 97.2273Q99.09813 97.49293 99.09813 98.19605L99.09813 99.6023Q99.09813 101.07105 99.16063 101.46168Q99.238754 101.8523 99.44188 102.21168L98.332504 102.21168Q98.176254 101.88355 98.12938 101.44605ZM98.03563 99.08668Q97.457504 99.32105 96.31688 99.49293Q95.66063 99.58668 95.395004 99.71168Q95.12938 99.82105 94.97313 100.0398Q94.832504 100.25855 94.832504 100.5398Q94.832504 100.96168 95.145004 101.24293Q95.47313 101.52418 96.082504 101.52418Q96.69188 101.52418 97.16063 101.25855Q97.645004 100.99293 97.863754 100.52418Q98.03563 100.1648 98.03563 99.4773L98.03563 99.08668ZM104.19188 102.21168L104.19188 93.61793L107.44188 93.61793Q108.28563 93.61793 108.738754 93.69605Q109.37938 93.80543 109.801254 94.1023Q110.238754 94.39918 110.488754 94.93043Q110.75438 95.46168 110.75438 96.1023Q110.75438 97.19605 110.051254 97.96168Q109.363754 98.71168 107.53563 98.71168L105.332504 98.71168L105.332504 102.21168L104.19188 102.21168ZM105.332504 97.71168L107.551254 97.71168Q108.66063 97.71168 109.113754 97.30543Q109.582504 96.88355 109.582504 96.13355Q109.582504 95.6023 109.301254 95.2273Q109.03563 94.83668 108.59813 94.71168Q108.301254 94.63355 107.53563 94.63355L105.332504 94.63355L105.332504 97.71168ZM112.020004 104.6023L111.895004 103.61793Q112.238754 103.71168 112.50438 103.71168Q112.84813 103.71168 113.051254 103.58668Q113.270004 103.4773 113.41063 103.27418Q113.50438 103.1023 113.738754 102.4773Q113.75438 102.39918 113.832504 102.2273L111.457504 95.99293L112.59813 95.99293L113.895004 99.58668Q114.145004 100.27418 114.34813 101.0398Q114.53563 100.30543 114.78563 99.61793L116.113754 95.99293L117.16063 95.99293L114.801254 102.32105Q114.41063 103.33668 114.207504 103.7273Q113.926254 104.25855 113.551254 104.49293Q113.19188 104.74293 112.69188 104.74293Q112.395004 104.74293 112.020004 104.6023ZM120.363754 101.27418L120.520004 102.19605Q120.06688 102.2898 119.72313 102.2898Q119.145004 102.2898 118.832504 102.11793Q118.520004 101.93043 118.37938 101.63355Q118.25438 101.33668 118.25438 100.38355L118.25438 96.80543L117.488754 96.80543L117.488754 95.99293L118.25438 95.99293L118.25438 94.44605L119.301254 93.82105L119.301254 95.99293L120.363754 95.99293L120.363754 96.80543L119.301254 96.80543L119.301254 100.44605Q119.301254 100.89918 119.34813 101.02418Q119.41063 101.14918 119.53563 101.2273Q119.66063 101.30543 119.895004 101.30543Q120.082504 101.30543 120.363754 101.27418ZM121.06688 102.21168L121.06688 93.61793L122.113754 93.61793L122.113754 96.69605Q122.84813 95.8523 123.97313 95.8523Q124.676254 95.8523 125.176254 96.13355Q125.69188 96.39918 125.91063 96.88355Q126.12938 97.3523 126.12938 98.27418L126.12938 102.21168L125.082504 102.21168L125.082504 98.27418Q125.082504 97.4773 124.738754 97.11793Q124.395004 96.75855 123.770004 96.75855Q123.301254 96.75855 122.87938 97.00855Q122.47313 97.24293 122.28563 97.6648Q122.113754 98.07105 122.113754 98.80543L122.113754 102.21168L121.06688 102.21168ZM127.676254 99.1023Q127.676254 97.36793 128.62938 96.5398Q129.42625 95.8523 130.5825 95.8523Q131.86375 95.8523 132.67625 96.69605Q133.50438 97.52418 133.50438 99.00855Q133.50438 100.21168 133.145 100.89918Q132.78563 101.58668 132.0825 101.9773Q131.395 102.3523 130.5825 102.3523Q129.28563 102.3523 128.47313 101.52418Q127.676254 100.68043 127.676254 99.1023ZM128.75438 99.1023Q128.75438 100.2898 129.27 100.88355Q129.80125 101.4773 130.5825 101.4773Q131.37938 101.4773 131.895 100.88355Q132.41063 100.2898 132.41063 99.07105Q132.41063 97.9148 131.87938 97.32105Q131.36375 96.7273 130.5825 96.7273Q129.80125 96.7273 129.27 97.32105Q128.75438 97.89918 128.75438 99.1023ZM135.06688 102.21168L135.06688 95.99293L136.00438 95.99293L136.00438 96.86793Q136.69188 95.8523 137.98875 95.8523Q138.55125 95.8523 139.02 96.05543Q139.50438 96.25855 139.73875 96.58668Q139.97313 96.9148 140.06688 97.3523Q140.11375 97.64918 140.11375 98.38355L140.11375 102.21168L139.06688 102.21168L139.06688 98.43043Q139.06688 97.77418 138.94188 97.46168Q138.81688 97.14918 138.50438 96.96168Q138.19188 96.75855 137.77 96.75855Q137.09813 96.75855 136.59813 97.19605Q136.11375 97.61793 136.11375 98.80543L136.11375 102.21168L135.06688 102.21168Z" fill-rule="nonzero"/><path fill="#000000" d="M102.06687 154.25368L102.06687 148.03493L103.00437 148.03493L103.00437 148.90993Q103.69187 147.8943 104.98875 147.8943Q105.55125 147.8943 106.02 148.09743Q106.50437 148.30055 106.73875 148.62868Q106.97312 148.9568 107.06687 149.3943Q107.11375 149.69118 107.11375 150.42555L107.11375 154.25368L106.06687 154.25368L106.06687 150.47243Q106.06687 149.81618 105.94187 149.50368Q105.81687 149.19118 105.50437 149.00368Q105.19187 148.80055 104.77 148.80055Q104.09812 148.80055 103.59812 149.23805Q103.11375 149.65993 103.11375 150.84743L103.11375 154.25368L102.06687 154.25368ZM109.06687 156.6443L109.06687 148.03493L110.02 148.03493L110.02 148.8318Q110.36375 148.36305 110.78562 148.12868Q111.22312 147.8943 111.8325 147.8943Q112.62937 147.8943 113.23875 148.30055Q113.84812 148.7068 114.145 149.4568Q114.4575 150.2068 114.4575 151.09743Q114.4575 152.05055 114.11375 152.81618Q113.78562 153.5818 113.12937 153.98805Q112.47312 154.3943 111.75437 154.3943Q111.22312 154.3943 110.80125 154.17555Q110.37937 153.94118 110.11375 153.61305L110.11375 156.6443L109.06687 156.6443ZM110.02 151.17555Q110.02 152.37868 110.50437 152.9568Q110.98875 153.5193 111.67625 153.5193Q112.37937 153.5193 112.87937 152.92555Q113.37937 152.3318 113.37937 151.0818Q113.37937 149.8943 112.895 149.31618Q112.41062 148.72243 111.72312 148.72243Q111.05125 148.72243 110.53562 149.34743Q110.02 149.97243 110.02 151.17555ZM116.36375 154.25368L116.36375 153.05055L117.56687 153.05055L117.56687 154.25368L116.36375 154.25368ZM118.645 152.3943L119.67625 152.23805Q119.77 152.86305 120.16062 153.19118Q120.56687 153.5193 121.30125 153.5193Q122.02 153.5193 122.36375 153.23805Q122.72312 152.94118 122.72312 152.53493Q122.72312 152.17555 122.41062 151.97243Q122.19187 151.8318 121.3325 151.61305Q120.17625 151.31618 119.72312 151.11305Q119.28562 150.8943 119.05125 150.5193Q118.81687 150.1443 118.81687 149.67555Q118.81687 149.2693 119.00437 148.90993Q119.19187 148.55055 119.52 148.31618Q119.77 148.1443 120.19187 148.0193Q120.61375 147.8943 121.11375 147.8943Q121.8325 147.8943 122.37937 148.11305Q122.94187 148.31618 123.2075 148.67555Q123.47312 149.03493 123.56687 149.62868L122.53562 149.7693Q122.47312 149.30055 122.12937 149.03493Q121.80125 148.75368 121.17625 148.75368Q120.4575 148.75368 120.145 149.00368Q119.8325 149.23805 119.8325 149.56618Q119.8325 149.7693 119.9575 149.92555Q120.09812 150.09743 120.36375 150.2068Q120.52 150.2693 121.30125 150.47243Q122.42625 150.78493 122.86375 150.97243Q123.30125 151.15993 123.55125 151.5193Q123.80125 151.87868 123.80125 152.42555Q123.80125 152.9568 123.48875 153.42555Q123.19187 153.87868 122.61375 154.1443Q122.03562 154.3943 121.30125 154.3943Q120.0825 154.3943 119.44187 153.8943Q118.81687 153.37868 118.645 152.3943ZM129.14499 154.25368L129.14499 153.3318Q128.41061 154.3943 127.16062 154.3943Q126.61375 154.3943 126.12937 154.19118Q125.66062 153.97243 125.42625 153.65993Q125.19187 153.3318 125.09812 152.86305Q125.03562 152.56618 125.03562 151.87868L125.03562 148.03493L126.09812 148.03493L126.09812 151.48805Q126.09812 152.30055 126.16062 152.59743Q126.25437 153.00368 126.56687 153.25368Q126.895 153.48805 127.37937 153.48805Q127.84812 153.48805 128.25436 153.25368Q128.67624 153.00368 128.84811 152.5818Q129.03561 152.15993 129.03561 151.36305L129.03561 148.03493L130.08249 148.03493L130.08249 154.25368L129.14499 154.25368ZM132.06686 154.25368L132.06686 148.03493L133.00436 148.03493L133.00436 148.90993Q133.30124 148.44118 133.78561 148.17555Q134.26999 147.8943 134.89499 147.8943Q135.58249 147.8943 136.01999 148.17555Q136.47311 148.4568 136.64499 148.97243Q137.39499 147.8943 138.56686 147.8943Q139.50436 147.8943 139.98874 148.40993Q140.48874 148.90993 140.48874 149.98805L140.48874 154.25368L139.44186 154.25368L139.44186 150.3318Q139.44186 149.7068 139.33249 149.42555Q139.23874 149.1443 138.97311 148.97243Q138.70749 148.80055 138.33249 148.80055Q137.67624 148.80055 137.23874 149.23805Q136.81686 149.67555 136.81686 150.6443L136.81686 154.25368L135.75436 154.25368L135.75436 150.2068Q135.75436 149.50368 135.48874 149.15993Q135.23874 148.80055 134.66061 148.80055Q134.20749 148.80055 133.83249 149.03493Q133.45749 149.2693 133.28561 149.72243Q133.11374 150.17555 133.11374 151.0193L133.11374 154.25368L132.06686 154.25368Z" fill-rule="nonzero"/><path fill="#000000" d="M102.19187 206.29567L102.19187 197.70192L103.34812 197.70192L107.86375 204.45192L107.86375 197.70192L108.9575 197.70192L108.9575 206.29567L107.78562 206.29567L103.27 199.54567L103.27 206.29567L102.19187 206.29567ZM115.145 206.29567L115.145 205.3738Q114.41062 206.4363 113.16062 206.4363Q112.61375 206.4363 112.12937 206.23317Q111.66062 206.01442 111.42625 205.70192Q111.19187 205.3738 111.09812 204.90504Q111.03562 204.60817 111.03562 203.92067L111.03562 200.07692L112.09812 200.07692L112.09812 203.53004Q112.09812 204.34254 112.16062 204.63942Q112.25437 205.04567 112.56687 205.29567Q112.895 205.53004 113.37937 205.53004Q113.84812 205.53004 114.25437 205.29567Q114.67625 205.04567 114.84812 204.6238Q115.03562 204.20192 115.03562 203.40504L115.03562 200.07692L116.0825 200.07692L116.0825 206.29567L115.145 206.29567ZM118.06687 206.29567L118.06687 200.07692L119.00437 200.07692L119.00437 200.95192Q119.30125 200.48317 119.78562 200.21754Q120.27 199.9363 120.895 199.9363Q121.5825 199.9363 122.02 200.21754Q122.47312 200.4988 122.645 201.01442Q123.395 199.9363 124.56687 199.9363Q125.50437 199.9363 125.98875 200.45192Q126.48875 200.95192 126.48875 202.03004L126.48875 206.29567L125.44187 206.29567L125.44187 202.3738Q125.44187 201.7488 125.3325 201.46754Q125.23875 201.1863 124.97312 201.01442Q124.7075 200.84254 124.3325 200.84254Q123.67625 200.84254 123.23875 201.28004Q122.81687 201.71754 122.81687 202.6863L122.81687 206.29567L121.75437 206.29567L121.75437 202.2488Q121.75437 201.54567 121.48875 201.20192Q121.23875 200.84254 120.66062 200.84254Q120.2075 200.84254 119.8325 201.07692Q119.4575 201.3113 119.28562 201.76442Q119.11375 202.21754 119.11375 203.0613L119.11375 206.29567L118.06687 206.29567ZM129.03561 206.29567L128.05124 206.29567L128.05124 197.70192L129.11374 197.70192L129.11374 200.76442Q129.78561 199.9363 130.81686 199.9363Q131.39499 199.9363 131.89499 200.17067Q132.41061 200.38942 132.73874 200.8113Q133.08249 201.23317 133.26999 201.82692Q133.45749 202.42067 133.45749 203.09254Q133.45749 204.6863 132.66061 205.5613Q131.86374 206.4363 130.76999 206.4363Q129.66061 206.4363 129.03561 205.51442L129.03561 206.29567ZM129.01999 203.13942Q129.01999 204.2488 129.33249 204.7488Q129.83249 205.5613 130.67624 205.5613Q131.36374 205.5613 131.86374 204.96754Q132.37936 204.3738 132.37936 203.17067Q132.37936 201.95192 131.89499 201.3738Q131.41061 200.79567 130.72311 200.79567Q130.03561 200.79567 129.51999 201.40504Q129.01999 201.9988 129.01999 203.13942ZM139.12936 205.53004Q138.53561 206.03004 137.98874 206.23317Q137.45749 206.4363 136.83249 206.4363Q135.80124 206.4363 135.25436 205.9363Q134.70749 205.4363 134.70749 204.65504Q134.70749 204.20192 134.91061 203.82692Q135.11374 203.4363 135.45749 203.21754Q135.80124 202.98317 136.22311 202.8738Q136.51999 202.78004 137.16061 202.70192Q138.42624 202.5613 139.03561 202.34254Q139.03561 202.1238 139.03561 202.07692Q139.03561 201.42067 138.73874 201.15504Q138.33249 200.8113 137.53561 200.8113Q136.80124 200.8113 136.44186 201.07692Q136.08249 201.32692 135.91061 201.98317L134.87936 201.84254Q135.01999 201.1863 135.34811 200.78004Q135.67624 200.3738 136.28561 200.15504Q136.89499 199.9363 137.69186 199.9363Q138.48874 199.9363 138.98874 200.1238Q139.48874 200.3113 139.72311 200.59254Q139.95749 200.8738 140.05124 201.3113Q140.09811 201.57692 140.09811 202.28004L140.09811 203.6863Q140.09811 205.15504 140.16061 205.54567Q140.23874 205.9363 140.44186 206.29567L139.33249 206.29567Q139.17624 205.96754 139.12936 205.53004ZM139.03561 203.17067Q138.45749 203.40504 137.31686 203.57692Q136.66061 203.67067 136.39499 203.79567Q136.12936 203.90504 135.97311 204.1238Q135.83249 204.34254 135.83249 204.6238Q135.83249 205.04567 136.14499 205.32692Q136.47311 205.60817 137.08249 205.60817Q137.69186 205.60817 138.16061 205.34254Q138.64499 205.07692 138.86374 204.60817Q139.03561 204.2488 139.03561 203.5613L139.03561 203.17067Z" fill-rule="nonzero"/><path fill="#000000" d="M34.191875 258.33768L34.191875 249.74393L35.348125 249.74393L39.86375 256.49393L39.86375 249.74393L40.9575 249.74393L40.9575 258.33768L39.785625 258.33768L35.27 251.58768L35.27 258.33768L34.191875 258.33768ZM47.145 258.33768L47.145 257.4158Q46.410625 258.4783 45.160625 258.4783Q44.61375 258.4783 44.129375 258.27518Q43.660625 258.05643 43.42625 257.74393Q43.191875 257.4158 43.098125 256.94705Q43.035625 256.65018 43.035625 255.96268L43.035625 252.11893L44.098125 252.11893L44.098125 255.57205Q44.098125 256.38455 44.160625 256.68143Q44.254375 257.08768 44.566875 257.33768Q44.895 257.57205 45.379375 257.57205Q45.848125 257.57205 46.254375 257.33768Q46.67625 257.08768 46.848125 256.6658Q47.035625 256.24393 47.035625 255.44705L47.035625 252.11893L48.0825 252.11893L48.0825 258.33768L47.145 258.33768ZM50.066875 258.33768L50.066875 252.11893L51.004375 252.11893L51.004375 252.99393Q51.30125 252.52518 51.785625 252.25955Q52.27 251.9783 52.895 251.9783Q53.5825 251.9783 54.02 252.25955Q54.473125 252.5408 54.645 253.05643Q55.395 251.9783 56.566875 251.9783Q57.504375 251.9783 57.98875 252.49393Q58.48875 252.99393 58.48875 254.07205L58.48875 258.33768L57.441875 258.33768L57.441875 254.4158Q57.441875 253.7908 57.3325 253.50955Q57.23875 253.2283 56.973125 253.05643Q56.7075 252.88455 56.3325 252.88455Q55.67625 252.88455 55.23875 253.32205Q54.816875 253.75955 54.816875 254.7283L54.816875 258.33768L53.754375 258.33768L53.754375 254.2908Q53.754375 253.58768 53.48875 253.24393Q53.23875 252.88455 52.660625 252.88455Q52.2075 252.88455 51.8325 253.11893Q51.4575 253.3533 51.285625 253.80643Q51.11375 254.25955 51.11375 255.1033L51.11375 258.33768L50.066875 258.33768ZM61.035625 258.33768L60.05125 258.33768L60.05125 249.74393L61.11375 249.74393L61.11375 252.80643Q61.785625 251.9783 62.816875 251.9783Q63.395 251.9783 63.895 252.21268Q64.41063 252.43143 64.738754 252.8533Q65.082504 253.27518 65.270004 253.86893Q65.457504 254.46268 65.457504 255.13455Q65.457504 256.7283 64.66063 257.6033Q63.86375 258.4783 62.77 258.4783Q61.660625 258.4783 61.035625 257.55643L61.035625 258.33768ZM61.02 255.18143Q61.02 256.2908 61.3325 256.7908Q61.8325 257.6033 62.67625 257.6033Q63.36375 257.6033 63.86375 257.00955Q64.37938 256.4158 64.37938 255.21268Q64.37938 253.99393 63.895 253.4158Q63.410625 252.83768 62.723125 252.83768Q62.035625 252.83768 61.52 253.44705Q61.02 254.0408 61.02 255.18143ZM71.12938 257.57205Q70.53563 258.07205 69.988754 258.27518Q69.457504 258.4783 68.832504 258.4783Q67.801254 258.4783 67.25438 257.9783Q66.707504 257.4783 66.707504 256.69705Q66.707504 256.24393 66.91063 255.86893Q67.113754 255.4783 67.457504 255.25955Q67.801254 255.02518 68.22313 254.9158Q68.520004 254.82205 69.16063 254.74393Q70.426254 254.6033 71.03563 254.38455Q71.03563 254.1658 71.03563 254.11893Q71.03563 253.46268 70.738754 253.19705Q70.332504 252.8533 69.53563 252.8533Q68.801254 252.8533 68.44188 253.11893Q68.082504 253.36893 67.91063 254.02518L66.87938 253.88455Q67.020004 253.2283 67.34813 252.82205Q67.676254 252.4158 68.28563 252.19705Q68.895004 251.9783 69.69188 251.9783Q70.488754 251.9783 70.988754 252.1658Q71.488754 252.3533 71.72313 252.63455Q71.957504 252.9158 72.051254 253.3533Q72.09813 253.61893 72.09813 254.32205L72.09813 255.7283Q72.09813 257.19705 72.16063 257.58768Q72.238754 257.9783 72.44188 258.33768L71.332504 258.33768Q71.176254 258.00955 71.12938 257.57205ZM71.03563 255.21268Q70.457504 255.44705 69.31688 255.61893Q68.66063 255.71268 68.395004 255.83768Q68.12938 255.94705 67.97313 256.1658Q67.832504 256.38455 67.832504 256.6658Q67.832504 257.08768 68.145004 257.36893Q68.47313 257.65018 69.082504 257.65018Q69.69188 257.65018 70.16063 257.38455Q70.645004 257.11893 70.863754 256.65018Q71.03563 256.2908 71.03563 255.6033L71.03563 255.21268ZM78.207504 258.33768L76.301254 252.11893L77.395004 252.11893L78.37938 255.71268L78.75438 257.0408Q78.78563 256.94705 79.082504 255.75955L80.06688 252.11893L81.145004 252.11893L82.082504 255.7283L82.395004 256.9158L82.75438 255.71268L83.81688 252.11893L84.84813 252.11893L82.895004 258.33768L81.801254 258.33768L80.81688 254.6033L80.56688 253.55643L79.31688 258.33768L78.207504 258.33768ZM86.06688 250.96268L86.06688 249.74393L87.12938 249.74393L87.12938 250.96268L86.06688 250.96268ZM86.06688 258.33768L86.06688 252.11893L87.12938 252.11893L87.12938 258.33768L86.06688 258.33768ZM91.363754 257.40018L91.520004 258.32205Q91.06688 258.4158 90.72313 258.4158Q90.145004 258.4158 89.832504 258.24393Q89.520004 258.05643 89.37938 257.75955Q89.25438 257.46268 89.25438 256.50955L89.25438 252.93143L88.488754 252.93143L88.488754 252.11893L89.25438 252.11893L89.25438 250.57205L90.301254 249.94705L90.301254 252.11893L91.363754 252.11893L91.363754 252.93143L90.301254 252.93143L90.301254 256.57205Q90.301254 257.02518 90.34813 257.15018Q90.41063 257.27518 90.53563 257.3533Q90.66063 257.43143 90.895004 257.43143Q91.082504 257.43143 91.363754 257.40018ZM92.06688 258.33768L92.06688 249.74393L93.113754 249.74393L93.113754 252.82205Q93.84813 251.9783 94.97313 251.9783Q95.676254 251.9783 96.176254 252.25955Q96.69188 252.52518 96.91063 253.00955Q97.12938 253.4783 97.12938 254.40018L97.12938 258.33768L96.082504 258.33768L96.082504 254.40018Q96.082504 253.6033 95.738754 253.24393Q95.395004 252.88455 94.770004 252.88455Q94.301254 252.88455 93.87938 253.13455Q93.47313 253.36893 93.28563 253.7908Q93.113754 254.19705 93.113754 254.93143L93.113754 258.33768L92.06688 258.33768ZM102.06688 258.33768L102.06688 252.11893L103.00438 252.11893L103.00438 252.99393Q103.69188 251.9783 104.988754 251.9783Q105.551254 251.9783 106.020004 252.18143Q106.50438 252.38455 106.738754 252.71268Q106.97313 253.0408 107.06688 253.4783Q107.113754 253.77518 107.113754 254.50955L107.113754 258.33768L106.06688 258.33768L106.06688 254.55643Q106.06688 253.90018 105.94188 253.58768Q105.81688 253.27518 105.50438 253.08768Q105.19188 252.88455 104.770004 252.88455Q104.09813 252.88455 103.59813 253.32205Q103.113754 253.74393 103.113754 254.93143L103.113754 258.33768L102.06688 258.33768ZM109.06688 260.7283L109.06688 252.11893L110.020004 252.11893L110.020004 252.9158Q110.363754 252.44705 110.78563 252.21268Q111.22313 251.9783 111.832504 251.9783Q112.62938 251.9783 113.238754 252.38455Q113.84813 252.7908 114.145004 253.5408Q114.457504 254.2908 114.457504 255.18143Q114.457504 256.13455 114.113754 256.90018Q113.78563 257.6658 113.12938 258.07205Q112.47313 258.4783 111.75438 258.4783Q111.22313 258.4783 110.801254 258.25955Q110.37938 258.02518 110.113754 257.69705L110.113754 260.7283L109.06688 260.7283ZM110.020004 255.25955Q110.020004 256.46268 110.50438 257.0408Q110.988754 257.6033 111.676254 257.6033Q112.37938 257.6033 112.87938 257.00955Q113.37938 256.4158 113.37938 255.1658Q113.37938 253.9783 112.895004 253.40018Q112.41063 252.80643 111.72313 252.80643Q111.051254 252.80643 110.53563 253.43143Q110.020004 254.05643 110.020004 255.25955ZM116.363754 258.33768L116.363754 257.13455L117.56688 257.13455L117.56688 258.33768L116.363754 258.33768ZM118.645004 256.4783L119.676254 256.32205Q119.770004 256.94705 120.16063 257.27518Q120.56688 257.6033 121.301254 257.6033Q122.020004 257.6033 122.363754 257.32205Q122.72313 257.02518 122.72313 256.61893Q122.72313 256.25955 122.41063 256.05643Q122.19188 255.9158 121.332504 255.69705Q120.176254 255.40018 119.72313 255.19705Q119.28563 254.9783 119.051254 254.6033Q118.81688 254.2283 118.81688 253.75955Q118.81688 253.3533 119.00438 252.99393Q119.19188 252.63455 119.520004 252.40018Q119.770004 252.2283 120.19188 252.1033Q120.613754 251.9783 121.113754 251.9783Q121.832504 251.9783 122.37938 252.19705Q122.94188 252.40018 123.207504 252.75955Q123.47313 253.11893 123.56688 253.71268L122.53563 253.8533Q122.47313 253.38455 122.12938 253.11893Q121.801254 252.83768 121.176254 252.83768Q120.457504 252.83768 120.145004 253.08768Q119.832504 253.32205 119.832504 253.65018Q119.832504 253.8533 119.957504 254.00955Q120.09813 254.18143 120.363754 254.2908Q120.520004 254.3533 121.301254 254.55643Q122.426254 254.86893 122.863754 255.05643Q123.301254 255.24393 123.551254 255.6033Q123.801254 255.96268 123.801254 256.50955Q123.801254 257.0408 123.488754 257.50955Q123.19188 257.96268 122.613754 258.2283Q122.03563 258.4783 121.301254 258.4783Q120.082504 258.4783 119.44188 257.9783Q118.81688 257.46268 118.645004 256.4783ZM129.145 258.33768L129.145 257.4158Q128.41063 258.4783 127.16063 258.4783Q126.613754 258.4783 126.12938 258.27518Q125.66063 258.05643 125.426254 257.74393Q125.19188 257.4158 125.09813 256.94705Q125.03563 256.65018 125.03563 255.96268L125.03563 252.11893L126.09813 252.11893L126.09813 255.57205Q126.09813 256.38455 126.16063 256.68143Q126.25438 257.08768 126.56688 257.33768Q126.895004 257.57205 127.37938 257.57205Q127.84813 257.57205 128.25438 257.33768Q128.67625 257.08768 128.84813 256.6658Q129.03563 256.24393 129.03563 255.44705L129.03563 252.11893L130.0825 252.11893L130.0825 258.33768L129.145 258.33768ZM132.06688 258.33768L132.06688 252.11893L133.00438 252.11893L133.00438 252.99393Q133.30125 252.52518 133.78563 252.25955Q134.27 251.9783 134.895 251.9783Q135.5825 251.9783 136.02 252.25955Q136.47313 252.5408 136.645 253.05643Q137.395 251.9783 138.56688 251.9783Q139.50438 251.9783 139.98875 252.49393Q140.48875 252.99393 140.48875 254.07205L140.48875 258.33768L139.44188 258.33768L139.44188 254.4158Q139.44188 253.7908 139.3325 253.50955Q139.23875 253.2283 138.97313 253.05643Q138.7075 252.88455 138.3325 252.88455Q137.67625 252.88455 137.23875 253.32205Q136.81688 253.75955 136.81688 254.7283L136.81688 258.33768L135.75438 258.33768L135.75438 254.2908Q135.75438 253.58768 135.48875 253.24393Q135.23875 252.88455 134.66063 252.88455Q134.2075 252.88455 133.8325 253.11893Q133.4575 253.3533 133.28563 253.80643Q133.11375 254.25955 133.11375 255.1033L133.11375 258.33768L132.06688 258.33768Z" fill-rule="nonzero"/><path fill="#000000" d="M139.3325 307.36404L140.4575 307.66092Q140.09813 309.05154 139.17625 309.78592Q138.25438 310.5203 136.91063 310.5203Q135.52 310.5203 134.645 309.9578Q133.77 309.3953 133.31688 308.3328Q132.86375 307.25467 132.86375 306.0203Q132.86375 304.67654 133.37938 303.67654Q133.895 302.67654 134.8325 302.16092Q135.78563 301.6453 136.92625 301.6453Q138.2075 301.6453 139.0825 302.30154Q139.97313 302.9578 140.31688 304.1453L139.19188 304.41092Q138.895 303.47342 138.31688 303.05154Q137.75438 302.61404 136.895 302.61404Q135.91063 302.61404 135.23875 303.09842Q134.5825 303.56717 134.30125 304.36404Q134.03563 305.16092 134.03563 306.0203Q134.03563 307.11404 134.34813 307.92654Q134.67625 308.73904 135.34813 309.1453Q136.02 309.55154 136.81688 309.55154Q137.77 309.55154 138.42625 309.00467Q139.09813 308.4578 139.3325 307.36404Z" fill-rule="nonzero"/><path fill="#000000" d="M81.3325 352.40604L82.4575 352.7029Q82.09812 354.09354 81.17625 354.8279Q80.25437 355.5623 78.91062 355.5623Q77.52 355.5623 76.645 354.9998Q75.77 354.4373 75.31687 353.3748Q74.86375 352.29666 74.86375 351.0623Q74.86375 349.71854 75.37937 348.71854Q75.895 347.71854 76.8325 347.2029Q77.78562 346.6873 78.92625 346.6873Q80.2075 346.6873 81.0825 347.34354Q81.97312 347.9998 82.31687 349.1873L81.19187 349.4529Q80.895 348.5154 80.31687 348.09354Q79.75437 347.65604 78.895 347.65604Q77.91062 347.65604 77.23875 348.1404Q76.5825 348.60916 76.30125 349.40604Q76.03562 350.2029 76.03562 351.0623Q76.03562 352.15604 76.34812 352.96854Q76.67625 353.78104 77.34812 354.1873Q78.02 354.59354 78.81687 354.59354Q79.77 354.59354 80.42625 354.04666Q81.09812 353.4998 81.3325 352.40604ZM88.2075 355.42166L86.30125 349.2029L87.395 349.2029L88.37937 352.79666L88.75437 354.1248Q88.78562 354.03104 89.0825 352.84354L90.06687 349.2029L91.145 349.2029L92.0825 352.8123L92.395 353.9998L92.75437 352.79666L93.81687 349.2029L94.84812 349.2029L92.895 355.42166L91.80125 355.42166L90.81687 351.6873L90.56687 350.6404L89.31687 355.42166L88.2075 355.42166ZM96.06687 348.04666L96.06687 346.8279L97.12937 346.8279L97.12937 348.04666L96.06687 348.04666ZM96.06687 355.42166L96.06687 349.2029L97.12937 349.2029L97.12937 355.42166L96.06687 355.42166ZM101.36375 354.48416L101.52 355.40604Q101.06687 355.4998 100.72312 355.4998Q100.145 355.4998 99.8325 355.3279Q99.52 355.1404 99.37937 354.84354Q99.25437 354.54666 99.25437 353.59354L99.25437 350.0154L98.48875 350.0154L98.48875 349.2029L99.25437 349.2029L99.25437 347.65604L100.30125 347.03104L100.30125 349.2029L101.36375 349.2029L101.36375 350.0154L100.30125 350.0154L100.30125 353.65604Q100.30125 354.10916 100.34812 354.23416Q100.41062 354.35916 100.53562 354.4373Q100.66062 354.5154 100.895 354.5154Q101.0825 354.5154 101.36375 354.48416ZM102.06687 355.42166L102.06687 346.8279L103.11375 346.8279L103.11375 349.90604Q103.84812 349.0623 104.97312 349.0623Q105.67625 349.0623 106.17625 349.34354Q106.69187 349.60916 106.91062 350.09354Q107.12937 350.5623 107.12937 351.48416L107.12937 355.42166L106.0825 355.42166L106.0825 351.48416Q106.0825 350.6873 105.73875 350.3279Q105.395 349.96854 104.77 349.96854Q104.30125 349.96854 103.87937 350.21854Q103.47312 350.4529 103.28562 350.8748Q103.11375 351.28104 103.11375 352.0154L103.11375 355.42166L102.06687 355.42166ZM111.81687 352.65604L112.87937 352.5623Q112.9575 353.21854 113.23875 353.6248Q113.52 354.03104 114.09812 354.29666Q114.69187 354.54666 115.42625 354.54666Q116.06687 354.54666 116.56687 354.35916Q117.06687 354.15604 117.30125 353.8279Q117.55125 353.48416 117.55125 353.09354Q117.55125 352.6873 117.31687 352.3904Q117.0825 352.0779 116.55125 351.8748Q116.19187 351.73416 115.00437 351.4529Q113.8325 351.17166 113.36375 350.92166Q112.73875 350.59354 112.44187 350.1248Q112.145 349.6404 112.145 349.04666Q112.145 348.40604 112.50437 347.84354Q112.87937 347.2654 113.5825 346.98416Q114.30125 346.6873 115.16062 346.6873Q116.11375 346.6873 116.84812 346.9998Q117.5825 347.29666 117.97312 347.90604Q118.36375 348.4998 118.395 349.2498L117.30125 349.3279Q117.2075 348.5154 116.69187 348.10916Q116.19187 347.6873 115.2075 347.6873Q114.17625 347.6873 113.7075 348.0623Q113.23875 348.4373 113.23875 348.96854Q113.23875 349.4373 113.56687 349.73416Q113.895 350.03104 115.27 350.34354Q116.66062 350.65604 117.17625 350.8904Q117.92625 351.2498 118.28562 351.78104Q118.645 352.29666 118.645 352.9998Q118.645 353.6873 118.25437 354.29666Q117.86375 354.8904 117.12937 355.23416Q116.395 355.5623 115.47312 355.5623Q114.30125 355.5623 113.50437 355.23416Q112.72312 354.8904 112.27 354.2029Q111.8325 353.5154 111.81687 352.65604ZM120.395 355.42166L120.395 346.8279L121.52 346.8279L121.52 355.42166L120.395 355.42166ZM123.16062 355.42166L123.16062 346.8279L124.87937 346.8279L126.91062 352.90604Q127.19187 353.7654 127.31687 354.1873Q127.4575 353.71854 127.77 352.8123L129.83249 346.8279L131.36374 346.8279L131.36374 355.42166L130.26999 355.42166L130.26999 348.23416L127.77 355.42166L126.73875 355.42166L124.25437 348.10916L124.25437 355.42166L123.16062 355.42166ZM133.19186 355.42166L133.19186 346.8279L136.16061 346.8279Q137.16061 346.8279 137.69186 346.9529Q138.42624 347.1248 138.94186 347.5623Q139.62936 348.1404 139.95749 349.04666Q140.30124 349.9373 140.30124 351.0779Q140.30124 352.0623 140.06686 352.8123Q139.84811 353.5623 139.48874 354.0623Q139.12936 354.5623 138.69186 354.84354Q138.26999 355.1248 137.67624 355.28104Q137.08249 355.42166 136.30124 355.42166L133.19186 355.42166ZM134.33249 354.40604L136.16061 354.40604Q137.01999 354.40604 137.50436 354.2498Q137.98874 354.09354 138.26999 353.79666Q138.67624 353.40604 138.89499 352.71854Q139.12936 352.03104 139.12936 351.0623Q139.12936 349.71854 138.67624 348.9998Q138.23874 348.2654 137.61374 348.0154Q137.14499 347.84354 136.14499 347.84354L134.33249 347.84354L134.33249 354.40604Z" fill-rule="nonzero"/><path fill="#000000" d="M94.395 369.42166L94.395 360.8279L95.52 360.8279L95.52 369.42166L94.395 369.42166ZM97.06687 369.42166L97.06687 363.2029L98.00437 363.2029L98.00437 364.0779Q98.69187 363.0623 99.98875 363.0623Q100.55125 363.0623 101.02 363.2654Q101.50437 363.46854 101.73875 363.79666Q101.97312 364.1248 102.06687 364.5623Q102.11375 364.85916 102.11375 365.59354L102.11375 369.42166L101.06687 369.42166L101.06687 365.6404Q101.06687 364.98416 100.94187 364.67166Q100.81687 364.35916 100.50437 364.17166Q100.19187 363.96854 99.77 363.96854Q99.09812 363.96854 98.59812 364.40604Q98.11375 364.8279 98.11375 366.0154L98.11375 369.42166L97.06687 369.42166ZM106.36375 368.48416L106.52 369.40604Q106.06687 369.4998 105.72312 369.4998Q105.145 369.4998 104.8325 369.3279Q104.52 369.1404 104.37937 368.84354Q104.25437 368.54666 104.25437 367.59354L104.25437 364.0154L103.48875 364.0154L103.48875 363.2029L104.25437 363.2029L104.25437 361.65604L105.30125 361.03104L105.30125 363.2029L106.36375 363.2029L106.36375 364.0154L105.30125 364.0154L105.30125 367.65604Q105.30125 368.10916 105.34812 368.23416Q105.41062 368.35916 105.53562 368.4373Q105.66062 368.5154 105.895 368.5154Q106.0825 368.5154 106.36375 368.48416ZM107.05125 369.42166L107.05125 363.2029L108.00437 363.2029L108.00437 364.1404Q108.36375 363.48416 108.66062 363.28104Q108.97312 363.0623 109.34812 363.0623Q109.87937 363.0623 110.42625 363.3904L110.06687 364.3748Q109.67625 364.1404 109.30125 364.1404Q108.94187 364.1404 108.66062 364.35916Q108.395 364.5623 108.28562 364.9373Q108.09812 365.4998 108.09812 366.15604L108.09812 369.42166L107.05125 369.42166ZM111.06687 362.04666L111.06687 360.8279L112.12937 360.8279L112.12937 362.04666L111.06687 362.04666ZM111.06687 369.42166L111.06687 363.2029L112.12937 363.2029L112.12937 369.42166L111.06687 369.42166ZM114.06687 369.42166L114.06687 363.2029L115.00437 363.2029L115.00437 364.0779Q115.69187 363.0623 116.98875 363.0623Q117.55125 363.0623 118.02 363.2654Q118.50437 363.46854 118.73875 363.79666Q118.97312 364.1248 119.06687 364.5623Q119.11375 364.85916 119.11375 365.59354L119.11375 369.42166L118.06687 369.42166L118.06687 365.6404Q118.06687 364.98416 117.94187 364.67166Q117.81687 364.35916 117.50437 364.17166Q117.19187 363.96854 116.77 363.96854Q116.09812 363.96854 115.59812 364.40604Q115.11375 364.8279 115.11375 366.0154L115.11375 369.42166L114.06687 369.42166ZM120.645 367.5623L121.67625 367.40604Q121.77 368.03104 122.16062 368.35916Q122.56687 368.6873 123.30125 368.6873Q124.02 368.6873 124.36375 368.40604Q124.72312 368.10916 124.72312 367.7029Q124.72312 367.34354 124.41062 367.1404Q124.19187 366.9998 123.3325 366.78104Q122.17625 366.48416 121.72312 366.28104Q121.28562 366.0623 121.05125 365.6873Q120.81687 365.3123 120.81687 364.84354Q120.81687 364.4373 121.00437 364.0779Q121.19187 363.71854 121.52 363.48416Q121.77 363.3123 122.19187 363.1873Q122.61375 363.0623 123.11375 363.0623Q123.8325 363.0623 124.37937 363.28104Q124.94187 363.48416 125.2075 363.84354Q125.47312 364.2029 125.56687 364.79666L124.53562 364.9373Q124.47312 364.46854 124.12937 364.2029Q123.80125 363.92166 123.17625 363.92166Q122.4575 363.92166 122.145 364.17166Q121.8325 364.40604 121.8325 364.73416Q121.8325 364.9373 121.9575 365.09354Q122.09812 365.2654 122.36375 365.3748Q122.52 365.4373 123.30125 365.6404Q124.42625 365.9529 124.86375 366.1404Q125.30125 366.3279 125.55125 366.6873Q125.80125 367.04666 125.80125 367.59354Q125.80125 368.1248 125.48875 368.59354Q125.19187 369.04666 124.61375 369.3123Q124.03562 369.5623 123.30125 369.5623Q122.0825 369.5623 121.44187 369.0623Q120.81687 368.54666 120.645 367.5623ZM127.06687 362.04666L127.06687 360.8279L128.12936 360.8279L128.12936 362.04666L127.06687 362.04666ZM127.06687 369.42166L127.06687 363.2029L128.12936 363.2029L128.12936 369.42166L127.06687 369.42166ZM134.12936 367.1404L135.16061 367.28104Q134.98874 368.34354 134.28561 368.9529Q133.58249 369.5623 132.56686 369.5623Q131.28561 369.5623 130.50436 368.73416Q129.73874 367.8904 129.73874 366.3279Q129.73874 365.3279 130.06686 364.5779Q130.41061 363.8123 131.08249 363.4373Q131.76999 363.0623 132.58249 363.0623Q133.58249 363.0623 134.22311 363.5779Q134.87936 364.0779 135.06686 365.03104L134.03561 365.1873Q133.89499 364.5623 133.51999 364.2498Q133.14499 363.92166 132.61374 363.92166Q131.81686 363.92166 131.31686 364.4998Q130.81686 365.0623 130.81686 366.29666Q130.81686 367.5623 131.30124 368.1248Q131.78561 368.6873 132.55124 368.6873Q133.17624 368.6873 133.58249 368.3123Q134.00436 367.9373 134.12936 367.1404ZM135.64499 367.5623L136.67624 367.40604Q136.76999 368.03104 137.16061 368.35916Q137.56686 368.6873 138.30124 368.6873Q139.01999 368.6873 139.36374 368.40604Q139.72311 368.10916 139.72311 367.7029Q139.72311 367.34354 139.41061 367.1404Q139.19186 366.9998 138.33249 366.78104Q137.17624 366.48416 136.72311 366.28104Q136.28561 366.0623 136.05124 365.6873Q135.81686 365.3123 135.81686 364.84354Q135.81686 364.4373 136.00436 364.0779Q136.19186 363.71854 136.51999 363.48416Q136.76999 363.3123 137.19186 363.1873Q137.61374 363.0623 138.11374 363.0623Q138.83249 363.0623 139.37936 363.28104Q139.94186 363.48416 140.20749 363.84354Q140.47311 364.2029 140.56686 364.79666L139.53561 364.9373Q139.47311 364.46854 139.12936 364.2029Q138.80124 363.92166 138.17624 363.92166Q137.45749 363.92166 137.14499 364.17166Q136.83249 364.40604 136.83249 364.73416Q136.83249 364.9373 136.95749 365.09354Q137.09811 365.2654 137.36374 365.3748Q137.51999 365.4373 138.30124 365.6404Q139.42624 365.9529 139.86374 366.1404Q140.30124 366.3279 140.55124 366.6873Q140.80124 367.04666 140.80124 367.59354Q140.80124 368.1248 140.48874 368.59354Q140.19186 369.04666 139.61374 369.3123Q139.03561 369.5623 138.30124 369.5623Q137.08249 369.5623 136.44186 369.0623Q135.81686 368.54666 135.64499 367.5623Z" fill-rule="nonzero"/><path fill="#000000" d="M148.23875 410.55L147.19188 410.55L147.19188 403.83124Q146.80125 404.1906 146.17625 404.5656Q145.56688 404.925 145.0825 405.09686L145.0825 404.08124Q145.9575 403.65936 146.61375 403.08124Q147.28563 402.4875 147.56688 401.925L148.23875 401.925L148.23875 410.55Z" fill-rule="nonzero"/><path fill="#000000" d="M251.19315 410.55L250.14627 410.55L250.14627 403.83124Q249.75565 404.1906 249.13065 404.5656Q248.52127 404.925 248.0369 405.09686L248.0369 404.08124Q248.9119 403.65936 249.56815 403.08124Q250.24002 402.4875 250.52127 401.925L251.19315 401.925L251.19315 410.55ZM254.2244 406.3156Q254.2244 404.78436 254.5369 403.8625Q254.8494 402.925 255.45877 402.425Q256.08377 401.925 257.02127 401.925Q257.70877 401.925 258.2244 402.20624Q258.75565 402.4875 259.0994 403.01874Q259.44315 403.53436 259.63065 404.28436Q259.81815 405.03436 259.81815 406.3156Q259.81815 407.83124 259.50565 408.7531Q259.20877 409.675 258.58377 410.1906Q257.9744 410.6906 257.02127 410.6906Q255.7869 410.6906 255.06815 409.8Q254.2244 408.7375 254.2244 406.3156ZM255.30252 406.3156Q255.30252 408.425 255.80252 409.1281Q256.30252 409.83124 257.02127 409.83124Q257.75565 409.83124 258.24002 409.1281Q258.74002 408.425 258.74002 406.3156Q258.74002 404.1906 258.24002 403.5031Q257.75565 402.8 257.00565 402.8Q256.2869 402.8 255.8494 403.40936Q255.30252 404.1906 255.30252 406.3156Z" fill-rule="nonzero"/><path fill="#000000" d="M354.14752 410.55L353.10065 410.55L353.10065 403.83124Q352.71002 404.1906 352.08502 404.5656Q351.47565 404.925 350.99127 405.09686L350.99127 404.08124Q351.86627 403.65936 352.52252 403.08124Q353.1944 402.4875 353.47565 401.925L354.14752 401.925L354.14752 410.55ZM357.17877 406.3156Q357.17877 404.78436 357.49127 403.8625Q357.80377 402.925 358.41315 402.425Q359.03815 401.925 359.97565 401.925Q360.66315 401.925 361.17877 402.20624Q361.71002 402.4875 362.05377 403.01874Q362.39752 403.53436 362.58502 404.28436Q362.77252 405.03436 362.77252 406.3156Q362.77252 407.83124 362.46002 408.7531Q362.16315 409.675 361.53815 410.1906Q360.92877 410.6906 359.97565 410.6906Q358.74127 410.6906 358.02252 409.8Q357.17877 408.7375 357.17877 406.3156ZM358.2569 406.3156Q358.2569 408.425 358.7569 409.1281Q359.2569 409.83124 359.97565 409.83124Q360.71002 409.83124 361.1944 409.1281Q361.6944 408.425 361.6944 406.3156Q361.6944 404.1906 361.1944 403.5031Q360.71002 402.8 359.96002 402.8Q359.24127 402.8 358.80377 403.40936Q358.2569 404.1906 358.2569 406.3156ZM364.17877 406.3156Q364.17877 404.78436 364.49127 403.8625Q364.80377 402.925 365.41315 402.425Q366.03815 401.925 366.97565 401.925Q367.66315 401.925 368.17877 402.20624Q368.71002 402.4875 369.05377 403.01874Q369.39752 403.53436 369.58502 404.28436Q369.77252 405.03436 369.77252 406.3156Q369.77252 407.83124 369.46002 408.7531Q369.16315 409.675 368.53815 410.1906Q367.92877 410.6906 366.97565 410.6906Q365.74127 410.6906 365.02252 409.8Q364.17877 408.7375 364.17877 406.3156ZM365.2569 406.3156Q365.2569 408.425 365.7569 409.1281Q366.2569 409.83124 366.97565 409.83124Q367.71002 409.83124 368.1944 409.1281Q368.6944 408.425 368.6944 406.3156Q368.6944 404.1906 368.1944 403.5031Q367.71002 402.8 366.96002 402.8Q366.24127 402.8 365.80377 403.40936Q365.2569 404.1906 365.2569 406.3156Z" fill-rule="nonzero"/><path fill="#000000" d="M457.10193 410.55L456.05505 410.55L456.05505 403.83124Q455.66443 404.1906 455.03943 404.5656Q454.43005 404.925 453.94568 405.09686L453.94568 404.08124Q454.82068 403.65936 455.47693 403.08124Q456.1488 402.4875 456.43005 401.925L457.10193 401.925L457.10193 410.55ZM460.13318 406.3156Q460.13318 404.78436 460.44568 403.8625Q460.75818 402.925 461.36755 402.425Q461.99255 401.925 462.93005 401.925Q463.61755 401.925 464.13318 402.20624Q464.66443 402.4875 465.00818 403.01874Q465.35193 403.53436 465.53943 404.28436Q465.72693 405.03436 465.72693 406.3156Q465.72693 407.83124 465.41443 408.7531Q465.11755 409.675 464.49255 410.1906Q463.88318 410.6906 462.93005 410.6906Q461.69568 410.6906 460.97693 409.8Q460.13318 408.7375 460.13318 406.3156ZM461.2113 406.3156Q461.2113 408.425 461.7113 409.1281Q462.2113 409.83124 462.93005 409.83124Q463.66443 409.83124 464.1488 409.1281Q464.6488 408.425 464.6488 406.3156Q464.6488 404.1906 464.1488 403.5031Q463.66443 402.8 462.91443 402.8Q462.19568 402.8 461.75818 403.40936Q461.2113 404.1906 461.2113 406.3156ZM467.13318 406.3156Q467.13318 404.78436 467.44568 403.8625Q467.75818 402.925 468.36755 402.425Q468.99255 401.925 469.93005 401.925Q470.61755 401.925 471.13318 402.20624Q471.66443 402.4875 472.00818 403.01874Q472.35193 403.53436 472.53943 404.28436Q472.72693 405.03436 472.72693 406.3156Q472.72693 407.83124 472.41443 408.7531Q472.11755 409.675 471.49255 410.1906Q470.88318 410.6906 469.93005 410.6906Q468.69568 410.6906 467.97693 409.8Q467.13318 408.7375 467.13318 406.3156ZM468.2113 406.3156Q468.2113 408.425 468.7113 409.1281Q469.2113 409.83124 469.93005 409.83124Q470.66443 409.83124 471.1488 409.1281Q471.6488 408.425 471.6488 406.3156Q471.6488 404.1906 471.1488 403.5031Q470.66443 402.8 469.91443 402.8Q469.19568 402.8 468.75818 403.40936Q468.2113 404.1906 468.2113 406.3156ZM474.13318 406.3156Q474.13318 404.78436 474.44568 403.8625Q474.75818 402.925 475.36755 402.425Q475.99255 401.925 476.93005 401.925Q477.61755 401.925 478.13318 402.20624Q478.66443 402.4875 479.00818 403.01874Q479.35193 403.53436 479.53943 404.28436Q479.72693 405.03436 479.72693 406.3156Q479.72693 407.83124 479.41443 408.7531Q479.11755 409.675 478.49255 410.1906Q477.88318 410.6906 476.93005 410.6906Q475.69568 410.6906 474.97693 409.8Q474.13318 408.7375 474.13318 406.3156ZM475.2113 406.3156Q475.2113 408.425 475.7113 409.1281Q476.2113 409.83124 476.93005 409.83124Q477.66443 409.83124 478.1488 409.1281Q478.6488 408.425 478.6488 406.3156Q478.6488 404.1906 478.1488 403.5031Q477.66443 402.8 476.91443 402.8Q476.19568 402.8 475.75818 403.40936Q475.2113 404.1906 475.2113 406.3156Z" fill-rule="nonzero"/><path fill="#000000" d="M560.05634 410.55L559.00946 410.55L559.00946 403.83124Q558.61884 404.1906 557.99384 404.5656Q557.38446 404.925 556.9001 405.09686L556.9001 404.08124Q557.7751 403.65936 558.43134 403.08124Q559.1032 402.4875 559.38446 401.925L560.05634 401.925L560.05634 410.55ZM563.0876 406.3156Q563.0876 404.78436 563.4001 403.8625Q563.7126 402.925 564.32196 402.425Q564.94696 401.925 565.88446 401.925Q566.57196 401.925 567.0876 402.20624Q567.61884 402.4875 567.9626 403.01874Q568.30634 403.53436 568.49384 404.28436Q568.68134 405.03436 568.68134 406.3156Q568.68134 407.83124 568.36884 408.7531Q568.07196 409.675 567.44696 410.1906Q566.8376 410.6906 565.88446 410.6906Q564.6501 410.6906 563.93134 409.8Q563.0876 408.7375 563.0876 406.3156ZM564.1657 406.3156Q564.1657 408.425 564.6657 409.1281Q565.1657 409.83124 565.88446 409.83124Q566.61884 409.83124 567.1032 409.1281Q567.6032 408.425 567.6032 406.3156Q567.6032 404.1906 567.1032 403.5031Q566.61884 402.8 565.86884 402.8Q565.1501 402.8 564.7126 403.40936Q564.1657 404.1906 564.1657 406.3156ZM570.0876 406.3156Q570.0876 404.78436 570.4001 403.8625Q570.7126 402.925 571.32196 402.425Q571.94696 401.925 572.88446 401.925Q573.57196 401.925 574.0876 402.20624Q574.61884 402.4875 574.9626 403.01874Q575.30634 403.53436 575.49384 404.28436Q575.68134 405.03436 575.68134 406.3156Q575.68134 407.83124 575.36884 408.7531Q575.07196 409.675 574.44696 410.1906Q573.8376 410.6906 572.88446 410.6906Q571.6501 410.6906 570.93134 409.8Q570.0876 408.7375 570.0876 406.3156ZM571.1657 406.3156Q571.1657 408.425 571.6657 409.1281Q572.1657 409.83124 572.88446 409.83124Q573.61884 409.83124 574.1032 409.1281Q574.6032 408.425 574.6032 406.3156Q574.6032 404.1906 574.1032 403.5031Q573.61884 402.8 572.86884 402.8Q572.1501 402.8 571.7126 403.40936Q571.1657 404.1906 571.1657 406.3156ZM577.0876 406.3156Q577.0876 404.78436 577.4001 403.8625Q577.7126 402.925 578.32196 402.425Q578.94696 401.925 579.88446 401.925Q580.57196 401.925 581.0876 402.20624Q581.61884 402.4875 581.9626 403.01874Q582.30634 403.53436 582.49384 404.28436Q582.68134 405.03436 582.68134 406.3156Q582.68134 407.83124 582.36884 408.7531Q582.07196 409.675 581.44696 410.1906Q580.8376 410.6906 579.88446 410.6906Q578.6501 410.6906 577.93134 409.8Q577.0876 408.7375 577.0876 406.3156ZM578.1657 406.3156Q578.1657 408.425 578.6657 409.1281Q579.1657 409.83124 579.88446 409.83124Q580.61884 409.83124 581.1032 409.1281Q581.6032 408.425 581.6032 406.3156Q581.6032 404.1906 581.1032 403.5031Q580.61884 402.8 579.86884 402.8Q579.1501 402.8 578.7126 403.40936Q578.1657 404.1906 578.1657 406.3156ZM584.0876 406.3156Q584.0876 404.78436 584.4001 403.8625Q584.7126 402.925 585.32196 402.425Q585.94696 401.925 586.88446 401.925Q587.57196 401.925 588.0876 402.20624Q588.61884 402.4875 588.9626 403.01874Q589.30634 403.53436 589.49384 404.28436Q589.68134 405.03436 589.68134 406.3156Q589.68134 407.83124 589.36884 408.7531Q589.07196 409.675 588.44696 410.1906Q587.8376 410.6906 586.88446 410.6906Q585.6501 410.6906 584.93134 409.8Q584.0876 408.7375 584.0876 406.3156ZM585.1657 406.3156Q585.1657 408.425 585.6657 409.1281Q586.1657 409.83124 586.88446 409.83124Q587.61884 409.83124 588.1032 409.1281Q588.6032 408.425 588.6032 406.3156Q588.6032 404.1906 588.1032 403.5031Q587.61884 402.8 586.86884 402.8Q586.1501 402.8 585.7126 403.40936Q585.1657 404.1906 585.1657 406.3156Z" fill-rule="nonzero"/><path fill="#757575" d="M24.35625 37.85625L26.1375 37.7Q26.2625 38.7625 26.715626 39.45Q27.184376 40.1375 28.153126 40.575Q29.1375 40.996876 30.371876 40.996876Q31.45 40.996876 32.278126 40.684376Q33.10625 40.35625 33.5125 39.79375Q33.91875 39.23125 33.91875 38.559376Q33.91875 37.8875 33.528126 37.3875Q33.1375 36.8875 32.246876 36.54375Q31.66875 36.309376 29.684376 35.840626Q27.715626 35.371876 26.934376 34.95Q25.903126 34.41875 25.403126 33.621876Q24.903126 32.825 24.903126 31.840626Q24.903126 30.746876 25.5125 29.809376Q26.121876 28.871876 27.309376 28.3875Q28.496876 27.8875 29.934376 27.8875Q31.528126 27.8875 32.746876 28.403126Q33.965626 28.91875 34.60625 29.91875Q35.2625 30.903126 35.309376 32.16875L33.496876 32.309376Q33.35625 30.95 32.5125 30.2625Q31.66875 29.559376 30.0125 29.559376Q28.29375 29.559376 27.496876 30.2Q26.715626 30.825 26.715626 31.7Q26.715626 32.48125 27.278126 32.98125Q27.825 33.48125 30.1375 33.996876Q32.45 34.5125 33.309376 34.903126Q34.559376 35.48125 35.153126 36.371876Q35.746876 37.246876 35.746876 38.403126Q35.746876 39.54375 35.090626 40.559376Q34.434376 41.575 33.2 42.1375Q31.98125 42.7 30.45 42.7Q28.5125 42.7 27.2 42.1375Q25.8875 41.559376 25.1375 40.41875Q24.3875 39.278126 24.35625 37.85625ZM44.559376 42.45L44.559376 40.91875Q43.35625 42.684376 41.278126 42.684376Q40.35625 42.684376 39.559376 42.340626Q38.7625 41.98125 38.371876 41.45Q37.996876 40.91875 37.840626 40.1375Q37.73125 39.621876 37.73125 38.496876L37.73125 32.075L39.48125 32.075L39.48125 37.825Q39.48125 39.2 39.590626 39.684376Q39.7625 40.371876 40.29375 40.778126Q40.840626 41.16875 41.621876 41.16875Q42.41875 41.16875 43.10625 40.7625Q43.809376 40.35625 44.090626 39.66875Q44.3875 38.965626 44.3875 37.6375L44.3875 32.075L46.1375 32.075L46.1375 42.45L44.559376 42.45ZM48.7625 42.45L48.7625 32.075L50.340626 32.075L50.340626 33.528126Q50.825 32.778126 51.6375 32.309376Q52.45 31.840626 53.48125 31.840626Q54.6375 31.840626 55.371876 32.325Q56.10625 32.79375 56.41875 33.653126Q57.653126 31.840626 59.621876 31.840626Q61.16875 31.840626 61.996876 32.7Q62.825 33.559376 62.825 35.325L62.825 42.45L61.075 42.45L61.075 35.91875Q61.075 34.85625 60.903126 34.403126Q60.73125 33.934376 60.278126 33.653126Q59.840626 33.371876 59.23125 33.371876Q58.1375 33.371876 57.403126 34.10625Q56.684376 34.825 56.684376 36.41875L56.684376 42.45L54.934376 42.45L54.934376 35.715626Q54.934376 34.54375 54.496876 33.965626Q54.075 33.371876 53.090626 33.371876Q52.35625 33.371876 51.715626 33.7625Q51.090626 34.153126 50.809376 34.903126Q50.528126 35.653126 50.528126 37.075L50.528126 42.45L48.7625 42.45ZM71.12187 37.2625Q71.12187 34.3875 72.71562 32.996876Q74.05937 31.840626 75.98125 31.840626Q78.12187 31.840626 79.46562 33.246876Q80.825 34.653126 80.825 37.121876Q80.825 39.121876 80.23125 40.278126Q79.6375 41.41875 78.48125 42.059376Q77.34062 42.684376 75.98125 42.684376Q73.79375 42.684376 72.45 41.29375Q71.12187 39.8875 71.12187 37.2625ZM72.91875 37.2625Q72.91875 39.2625 73.77812 40.246876Q74.65312 41.23125 75.98125 41.23125Q77.29375 41.23125 78.15312 40.246876Q79.02812 39.246876 79.02812 37.2Q79.02812 35.278126 78.15312 34.29375Q77.27812 33.29375 75.98125 33.29375Q74.65312 33.29375 73.77812 34.29375Q72.91875 35.278126 72.91875 37.2625ZM83.18437 42.45L83.18437 33.45L81.6375 33.45L81.6375 32.075L83.18437 32.075L83.18437 30.98125Q83.18437 29.934376 83.37187 29.41875Q83.62187 28.73125 84.2625 28.309376Q84.90312 27.8875 86.05937 27.8875Q86.80937 27.8875 87.7 28.059376L87.43437 29.590626Q86.8875 29.496876 86.40312 29.496876Q85.60625 29.496876 85.2625 29.840626Q84.93437 30.184376 84.93437 31.121876L84.93437 32.075L86.96562 32.075L86.96562 33.45L84.93437 33.45L84.93437 42.45L83.18437 42.45ZM101.87187 39.10625L103.68437 39.340626Q103.2625 40.91875 102.09062 41.809376Q100.93437 42.684376 99.12187 42.684376Q96.85625 42.684376 95.5125 41.29375Q94.18437 39.8875 94.18437 37.35625Q94.18437 34.73125 95.52812 33.29375Q96.87187 31.840626 99.02812 31.840626Q101.10625 31.840626 102.41875 33.2625Q103.74687 34.66875 103.74687 37.246876Q103.74687 37.403126 103.73125 37.715626L95.99687 37.715626Q96.09062 39.41875 96.96562 40.325Q97.84062 41.23125 99.1375 41.23125Q100.10625 41.23125 100.77812 40.73125Q101.46562 40.215626 101.87187 39.10625ZM96.09062 36.2625L101.8875 36.2625Q101.77812 34.965626 101.23125 34.309376Q100.3875 33.29375 99.04375 33.29375Q97.84062 33.29375 97.0125 34.10625Q96.18437 34.903126 96.09062 36.2625ZM105.73125 42.45L105.73125 28.1375L107.48125 28.1375L107.48125 42.45L105.73125 42.45ZM116.87187 39.10625L118.68437 39.340626Q118.2625 40.91875 117.09062 41.809376Q115.93437 42.684376 114.12187 42.684376Q111.85625 42.684376 110.5125 41.29375Q109.18437 39.8875 109.18437 37.35625Q109.18437 34.73125 110.52812 33.29375Q111.87187 31.840626 114.02812 31.840626Q116.10625 31.840626 117.41875 33.2625Q118.74687 34.66875 118.74687 37.246876Q118.74687 37.403126 118.73125 37.715626L110.99687 37.715626Q111.09062 39.41875 111.96562 40.325Q112.84062 41.23125 114.1375 41.23125Q115.10625 41.23125 115.77812 40.73125Q116.46562 40.215626 116.87187 39.10625ZM111.09062 36.2625L116.8875 36.2625Q116.77812 34.965626 116.23125 34.309376Q115.3875 33.29375 114.04375 33.29375Q112.84062 33.29375 112.0125 34.10625Q111.18437 34.903126 111.09062 36.2625ZM120.7625 42.45L120.7625 32.075L122.34062 32.075L122.34062 33.528126Q122.825 32.778126 123.6375 32.309376Q124.45 31.840626 125.48125 31.840626Q126.6375 31.840626 127.37187 32.325Q128.10625 32.79375 128.41875 33.653126Q129.65312 31.840626 131.62187 31.840626Q133.16875 31.840626 133.99687 32.7Q134.825 33.559376 134.825 35.325L134.825 42.45L133.075 42.45L133.075 35.91875Q133.075 34.85625 132.90312 34.403126Q132.73125 33.934376 132.27812 33.653126Q131.84062 33.371876 131.23125 33.371876Q130.1375 33.371876 129.40312 34.10625Q128.68437 34.825 128.68437 36.41875L128.68437 42.45L126.93437 42.45L126.93437 35.715626Q126.93437 34.54375 126.49687 33.965626Q126.075 33.371876 125.09062 33.371876Q124.35625 33.371876 123.71562 33.7625Q123.09062 34.153126 122.80937 34.903126Q122.52812 35.653126 122.52812 37.075L122.52812 42.45L120.7625 42.45ZM144.87187 39.10625L146.68437 39.340626Q146.2625 40.91875 145.09062 41.809376Q143.93437 42.684376 142.12187 42.684376Q139.85625 42.684376 138.5125 41.29375Q137.18437 39.8875 137.18437 37.35625Q137.18437 34.73125 138.52812 33.29375Q139.87187 31.840626 142.02812 31.840626Q144.10625 31.840626 145.41875 33.2625Q146.74687 34.66875 146.74687 37.246876Q146.74687 37.403126 146.73125 37.715626L138.99687 37.715626Q139.09062 39.41875 139.96562 40.325Q140.84062 41.23125 142.1375 41.23125Q143.10625 41.23125 143.77812 40.73125Q144.46562 40.215626 144.87187 39.10625ZM139.09062 36.2625L144.8875 36.2625Q144.77812 34.965626 144.23125 34.309376Q143.3875 33.29375 142.04375 33.29375Q140.84062 33.29375 140.0125 34.10625Q139.18437 34.903126 139.09062 36.2625ZM148.7625 42.45L148.7625 32.075L150.35625 32.075L150.35625 33.559376Q151.49687 31.840626 153.65312 31.840626Q154.59062 31.840626 155.37187 32.184376Q156.16875 32.5125 156.55937 33.059376Q156.95 33.60625 157.10625 34.35625Q157.2 34.85625 157.2 36.075L157.2 42.45L155.43437 42.45L155.43437 36.1375Q155.43437 35.059376 155.23125 34.528126Q155.02812 33.996876 154.49687 33.684376Q153.98125 33.371876 153.27812 33.371876Q152.15312 33.371876 151.34062 34.090626Q150.52812 34.79375 150.52812 36.778126L150.52812 42.45L148.7625 42.45ZM163.60625 40.871876L163.85625 42.434376Q163.12187 42.590626 162.52812 42.590626Q161.575 42.590626 161.04375 42.29375Q160.52812 41.98125 160.30937 41.496876Q160.09062 40.996876 160.09062 39.41875L160.09062 33.45L158.80937 33.45L158.80937 32.075L160.09062 32.075L160.09062 29.5125L161.84062 28.45L161.84062 32.075L163.60625 32.075L163.60625 33.45L161.84062 33.45L161.84062 39.5125Q161.84062 40.2625 161.93437 40.48125Q162.02812 40.684376 162.23125 40.825Q162.45 40.95 162.84062 40.95Q163.12187 40.95 163.60625 40.871876ZM165.05937 39.35625L166.80937 39.075Q166.95 40.121876 167.62187 40.684376Q168.29375 41.23125 169.49687 41.23125Q170.7 41.23125 171.27812 40.746876Q171.87187 40.246876 171.87187 39.590626Q171.87187 38.996876 171.35625 38.653126Q170.99687 38.41875 169.55937 38.059376Q167.62187 37.559376 166.87187 37.215626Q166.1375 36.85625 165.74687 36.23125Q165.35625 35.590626 165.35625 34.825Q165.35625 34.1375 165.66875 33.54375Q165.99687 32.95 166.54375 32.559376Q166.95 32.2625 167.65312 32.059376Q168.37187 31.840626 169.18437 31.840626Q170.40312 31.840626 171.325 32.2Q172.24687 32.54375 172.68437 33.153126Q173.12187 33.746876 173.29375 34.746876L171.575 34.98125Q171.45 34.184376 170.8875 33.746876Q170.325 33.29375 169.30937 33.29375Q168.09062 33.29375 167.575 33.7Q167.05937 34.090626 167.05937 34.621876Q167.05937 34.965626 167.27812 35.246876Q167.48125 35.528126 167.95 35.715626Q168.21562 35.809376 169.49687 36.153126Q171.37187 36.653126 172.10625 36.98125Q172.84062 37.29375 173.2625 37.903126Q173.68437 38.496876 173.68437 39.403126Q173.68437 40.278126 173.16875 41.059376Q172.65312 41.840626 171.68437 42.2625Q170.71562 42.684376 169.49687 42.684376Q167.48125 42.684376 166.41875 41.840626Q165.35625 40.996876 165.05937 39.35625ZM181.77812 30.153126L181.77812 28.1375L183.54375 28.1375L183.54375 30.153126L181.77812 30.153126ZM181.77812 42.45L181.77812 32.075L183.54375 32.075L183.54375 42.45L181.77812 42.45ZM185.7625 42.45L185.7625 32.075L187.35625 32.075L187.35625 33.559376Q188.49687 31.840626 190.65312 31.840626Q191.59062 31.840626 192.37187 32.184376Q193.16875 32.5125 193.55937 33.059376Q193.95 33.60625 194.10625 34.35625Q194.2 34.85625 194.2 36.075L194.2 42.45L192.43437 42.45L192.43437 36.1375Q192.43437 35.059376 192.23125 34.528126Q192.02812 33.996876 191.49687 33.684376Q190.98125 33.371876 190.27812 33.371876Q189.15312 33.371876 188.34062 34.090626Q187.52812 34.79375 187.52812 36.778126L187.52812 42.45L185.7625 42.45ZM209.54375 41.16875Q208.55937 41.996876 207.65312 42.340626Q206.74687 42.684376 205.71562 42.684376Q204.0125 42.684376 203.09062 41.85625Q202.16875 41.0125 202.16875 39.715626Q202.16875 38.95 202.5125 38.325Q202.87187 37.7 203.43437 37.325Q203.99687 36.934376 204.7 36.73125Q205.21562 36.60625 206.2625 36.465626Q208.3875 36.215626 209.3875 35.871876Q209.40312 35.5125 209.40312 35.403126Q209.40312 34.340626 208.90312 33.8875Q208.23125 33.29375 206.90312 33.29375Q205.65312 33.29375 205.05937 33.73125Q204.48125 34.16875 204.2 35.278126L202.48125 35.04375Q202.71562 33.934376 203.24687 33.2625Q203.77812 32.575 204.79375 32.215626Q205.80937 31.840626 207.15312 31.840626Q208.48125 31.840626 209.30937 32.153126Q210.1375 32.465626 210.52812 32.95Q210.91875 33.41875 211.075 34.1375Q211.16875 34.590626 211.16875 35.7625L211.16875 38.10625Q211.16875 40.559376 211.27812 41.215626Q211.3875 41.85625 211.73125 42.45L209.8875 42.45Q209.62187 41.903126 209.54375 41.16875ZM209.3875 37.246876Q208.43437 37.6375 206.5125 37.903126Q205.43437 38.059376 204.98125 38.2625Q204.54375 38.45 204.29375 38.825Q204.04375 39.2 204.04375 39.66875Q204.04375 40.371876 204.575 40.840626Q205.10625 41.309376 206.1375 41.309376Q207.15312 41.309376 207.93437 40.871876Q208.73125 40.41875 209.10625 39.653126Q209.3875 39.04375 209.3875 37.8875L209.3875 37.246876ZM213.74687 42.45L213.74687 32.075L215.325 32.075L215.325 33.653126Q215.93437 32.54375 216.45 32.2Q216.96562 31.840626 217.575 31.840626Q218.46562 31.840626 219.3875 32.403126L218.77812 34.04375Q218.1375 33.653126 217.49687 33.653126Q216.91875 33.653126 216.45 34.0125Q215.99687 34.35625 215.79375 34.965626Q215.5125 35.903126 215.5125 37.0125L215.5125 42.45L213.74687 42.45ZM220.74687 42.45L220.74687 32.075L222.325 32.075L222.325 33.653126Q222.93437 32.54375 223.45 32.2Q223.96562 31.840626 224.575 31.840626Q225.46562 31.840626 226.3875 32.403126L225.77812 34.04375Q225.1375 33.653126 224.49687 33.653126Q223.91875 33.653126 223.45 34.0125Q222.99687 34.35625 222.79375 34.965626Q222.5125 35.903126 222.5125 37.0125L222.5125 42.45L220.74687 42.45ZM234.54375 41.16875Q233.55937 41.996876 232.65312 42.340626Q231.74687 42.684376 230.71562 42.684376Q229.0125 42.684376 228.09062 41.85625Q227.16875 41.0125 227.16875 39.715626Q227.16875 38.95 227.5125 38.325Q227.87187 37.7 228.43437 37.325Q228.99687 36.934376 229.7 36.73125Q230.21562 36.60625 231.2625 36.465626Q233.3875 36.215626 234.3875 35.871876Q234.40312 35.5125 234.40312 35.403126Q234.40312 34.340626 233.90312 33.8875Q233.23125 33.29375 231.90312 33.29375Q230.65312 33.29375 230.05937 33.73125Q229.48125 34.16875 229.2 35.278126L227.48125 35.04375Q227.71562 33.934376 228.24687 33.2625Q228.77812 32.575 229.79375 32.215626Q230.80937 31.840626 232.15312 31.840626Q233.48125 31.840626 234.30937 32.153126Q235.1375 32.465626 235.52812 32.95Q235.91875 33.41875 236.075 34.1375Q236.16875 34.590626 236.16875 35.7625L236.16875 38.10625Q236.16875 40.559376 236.27812 41.215626Q236.3875 41.85625 236.73125 42.45L234.8875 42.45Q234.62187 41.903126 234.54375 41.16875ZM234.3875 37.246876Q233.43437 37.6375 231.5125 37.903126Q230.43437 38.059376 229.98125 38.2625Q229.54375 38.45 229.29375 38.825Q229.04375 39.2 229.04375 39.66875Q229.04375 40.371876 229.575 40.840626Q230.10625 41.309376 231.1375 41.309376Q232.15312 41.309376 232.93437 40.871876Q233.73125 40.41875 234.10625 39.653126Q234.3875 39.04375 234.3875 37.8875L234.3875 37.246876ZM238.68437 46.45L238.49687 44.79375Q239.075 44.95 239.49687 44.95Q240.09062 44.95 240.43437 44.746876Q240.79375 44.559376 241.0125 44.215626Q241.18437 43.95 241.55937 42.903126Q241.60625 42.746876 241.71562 42.465626L237.77812 32.075L239.66875 32.075L241.825 38.090626Q242.24687 39.23125 242.575 40.48125Q242.8875 39.278126 243.29375 38.121876L245.5125 32.075L247.27812 32.075L243.325 42.621876Q242.7 44.340626 242.34062 44.98125Q241.87187 45.85625 241.2625 46.246876Q240.66875 46.653126 239.825 46.653126Q239.30937 46.653126 238.68437 46.45Z" fill-rule="nonzero"/></svg>